<?xml version="1.0" encoding="iso-8859-1"?>
<!-- Generator: Adobe Illustrator 19.0.0, SVG Export Plug-In . SVG Version: 6.00 Build 0)  -->
<svg version="1.1" id="Layer_1" xmlns="http://www.w3.org/2000/svg" xmlns:xlink="http://www.w3.org/1999/xlink" x="0px" y="0px"
	 viewBox="0 0 511.998 511.998" style="enable-background:new 0 0 511.998 511.998;" xml:space="preserve">
<g>
	<g>
		<path d="M225.084,230.86c-3.526-2.283-8.239-1.278-10.525,2.247c-5.085,7.846-10.1,15.859-14.906,23.815
			c-2.172,3.597-0.844,8.009,2.579,10.448c3.656,2.602,9.019-0.212,10.449-2.579c4.723-7.82,9.653-15.695,14.65-23.406
			C229.618,237.857,228.611,233.146,225.084,230.86z"/>
	</g>
</g>
<g>
	<g>
		<path d="M438.342,86.587c-3.105-2.828-7.919-2.606-10.75,0.501c-2.436,2.675-5.099,5.165-7.911,7.406
			c-3.287,2.619-3.525,7.185-1.212,10.693c3.281,4.981,9.293,2.328,10.693,1.212c3.445-2.743,6.701-5.791,9.681-9.063
			C441.673,94.23,441.449,89.418,438.342,86.587z"/>
	</g>
</g>
<g>
	<g>
		<path d="M442.572,0.729c-2.681-0.35-26.924-3.187-52.409,5.372c-11.127,3.737-27.041,11.36-39.666,26.459
			c-12.426,14.863-19.205,33.844-20.255,56.516c-0.12,0.107-0.241,0.21-0.355,0.325c-17.996,18.211-35.61,37.754-52.538,58.226
			c0,0,7.934-82.357-90.488-92.013c-13.03-1.278-25.377,6.797-28.238,19.58c-0.591,2.639-5.589,26.538,0.645,52.678
			c2.723,11.419,8.887,27.953,22.794,41.882c14.451,14.477,34.042,23.093,58.276,25.71c-3.19,4.417-6.336,8.849-9.426,13.292
			c-2.399,3.451-1.546,8.193,1.904,10.592c1.324,0.92,7.316,2.684,10.592-1.904c11.214-15.704,22.728-31.578,34.814-46.765
			c17.188-21.597,35.208-42.24,53.684-61.519c1.913,4.91,5.317,9.064,9.709,11.928c-18.025,18.871-35.503,38.942-52.061,59.795
			c-52.265,65.816-121.522,172.951-154.65,309.578c-0.83,3.427-4.013,6.618-9.187,5.603c-4.117-0.808-6.592-5.112-5.603-9.188
			c14.962-61.706,38.318-122.695,69.419-181.266c2.752-5.182,5.603-10.419,8.475-15.562c2.049-3.669,0.735-8.305-2.936-10.353
			c-3.666-2.047-8.306-0.735-10.353,2.936c-2.501,4.48-4.974,9.025-7.395,13.55c-1.386-6.357-12.272-78.462-105.827-73.13
			c-13.077,0.746-24.131,11.364-24.131,24.46c0,108.959,99.666,103.343,103.383,103.027c-19.314,43.45-34.55,87.905-45.425,132.751
			c-2.965,12.232,4.724,24.039,16.812,27.566c16.535,4.825,25.068-6.533,27.56-16.808c10.343-42.658,24.291-82.389,40.153-118.826
			c51.299,78.904,119.173,39.852,140.262,26.29c11.015-7.084,14.822-21.69,8.667-33.25c-1.27-2.386-13.042-23.769-34.812-39.545
			c-16.465-11.934-47.872-26.941-87.394-8.863c18.236-34.342,37.585-64.847,56.119-91.084
			c36.944,97.007,132.146,53.411,134.543,52.29c11.862-5.552,17.584-19.517,13.027-31.796c-9.029-24.321-22.12-42.729-38.908-54.714
			c-14.258-10.176-30.665-15.489-48.766-15.791l-0.068-0.001c-8.643-0.124-16.658,0.908-23.658,2.417
			c15.801-19.352,32.376-37.931,49.399-55.401c23.75,5.364,44.754-5.197,45.09-5.365c3.758-1.88,4.855-6.265,3.403-10.21
			c-2.253-6.117-9.13-3.843-9.13-3.843c-0.06,0.019-0.119,0.039-0.178,0.06c-22.369,7.982-42.543,3.665-43.804,3.426
			c-4.681-0.884-8.075-4.828-8.252-9.589c-1.91-51.479,25.929-71.767,49.617-79.723c22.244-7.468,43.262-5.013,45.587-4.709
			c5.193,0.681,9.063,5.311,8.811,10.543c-0.718,14.914-3.513,28.178-8.306,39.423c-1.648,3.867,0.15,8.336,4.017,9.984
			c3.868,1.65,8.336-0.15,9.984-4.017c5.502-12.91,8.7-27.936,9.506-44.659C465.238,14.012,455.559,2.431,442.572,0.729z
			 M260.424,168.691c-3.122,4.008-6.214,8.046-9.273,12.111c-0.699,0.112-61.496-1.131-77.079-56.459
			c-6.359-22.576-1.109-43.536-0.598-45.823c1.146-5.111,6.104-8.55,11.292-7.83c22.626,3.144,40.701,10.687,53.723,22.421
			c10.6,9.554,17.747,21.706,21.246,36.121l0.075,0.318C263.721,145.95,261.927,160.928,260.424,168.691z M71.632,292.958
			c-10.227-21.131-9.14-42.582-9.06-44.925c0.18-5.234,4.418-9.531,9.65-9.782c22.808-1.091,41.974,2.978,56.942,12.103
			c12.273,7.481,21.588,18.2,27.691,31.863l0.044,0.097c6.991,15.71,7.84,31.272,7.798,38.411c-2.175,4.411-4.299,8.836-6.389,13.27
			C157.493,334.337,96.055,343.417,71.632,292.958z M295.033,341.039c18.29,14.701,29.208,32.307,30.309,34.374
			c2.461,4.624,0.94,10.464-3.465,13.296c-19.214,12.357-37.874,18.657-55.365,17.991c-46.926-1.785-68.627-48.485-68.773-49.012
			c2.008-4.318,4.04-8.589,6.095-12.807C204.245,344.688,253.322,307.513,295.033,341.039z M332.332,193.976l0.04,0.001
			c14.944,0.256,28.45,4.616,40.14,12.959c14.267,10.184,25.531,26.207,33.482,47.623c1.823,4.91-0.466,10.495-5.208,12.713
			c-2.124,0.994-21.436,9.589-44.876,9.302c-59.211-0.727-71.769-62.734-71.776-63.625c2.567-3.465,5.11-6.842,7.623-10.13
			C297.155,200.283,313.169,193.63,332.332,193.976z"/>
	</g>
</g>
<g>
</g>
<g>
</g>
<g>
</g>
<g>
</g>
<g>
</g>
<g>
</g>
<g>
</g>
<g>
</g>
<g>
</g>
<g>
</g>
<g>
</g>
<g>
</g>
<g>
</g>
<g>
</g>
<g>
</g>
</svg>
