<svg xmlns="http://www.w3.org/2000/svg"><g id="gucci-app-hover-HOVER2_State_GucciAppMobile" fill-rule="nonzero"> <path d="M9.91176471,1 L34.0882353,1 C39.010067,1 43,4.98993296 43,9.91176471 L43,34.0882353 C43,39.010067 39.010067,43 34.0882353,43 L9.91176471,43 C4.98993296,43 1,39.010067 1,34.0882353 L1,9.91176471 C1,4.98993296 4.98993296,1 9.91176471,1 Z" id="gucci-app-hover-Path" fill="#FFFFFF"/> <path d="M9.33613445,2.40336134 C5.50726959,2.40336134 2.40336134,5.50726959 2.40336134,9.33613445 L2.40336134,34.6638655 C2.40336134,38.4927304 5.50726959,41.5966387 9.33613445,41.5966387 L34.6638655,41.5966387 C38.4927304,41.5966387 41.5966387,38.4927304 41.5966387,34.6638655 L41.5966387,9.33613445 C41.5966387,5.50726959 38.4927304,2.40336134 34.6638655,2.40336134 L9.33613445,2.40336134 Z M9.33613445,0 L34.6638655,0 C39.8200702,-6.5680421e-16 44,4.17992977 44,9.33613445 L44,34.6638655 C44,39.8200702 39.8200702,44 34.6638655,44 L9.33613445,44 C4.17992977,44 5.25443368e-15,39.8200702 5.25443368e-15,34.6638655 L0,9.33613445 C0,4.17992977 4.17992977,4.59762947e-15 9.33613445,0 Z" id="gucci-app-hover-MouseOver" fill="#4B4B4B"/> <path d="M21,22.5124501 C21,23.7102986 21.8730668,24.6927911 23.039638,24.9306123 C23.039638,24.9306123 23.4342995,25.0001105 23.7162332,24.9999999 C24.4103563,24.9994465 25.0403254,24.7900665 25.5596288,24.4208848 C25.5596288,24.4208848 25.8754726,24.2320887 25.8768473,24.0389766 L26,23.1279743 C25.6419979,23.9871849 25.0392943,24.3094442 24.6895406,24.504991 C24.3964944,24.6519554 24.0190171,24.7577521 23.6655974,24.7577521 L23.6655974,24.7570881 C23.1247566,24.7570881 22.5728033,24.4582899 22.326727,23.9806556 L22.2962539,23.9328479 C22.0504067,23.5134238 21.9101844,23.0287069 21.9101844,22.5124501 C21.9101844,21.9960827 22.0504067,21.5112551 22.2962539,21.091831 L22.3239775,21.0443553 C22.5699393,20.566721 23.1247566,20.240035 23.6655974,20.240035 L23.6655974,20.2392604 C24.0190171,20.2392604 24.3964944,20.3396344 24.6895406,20.4867095 C25.2212166,20.8036568 25.6402795,21.2792992 25.8768473,21.8466836 L25.8768473,20.9857024 C25.8754726,20.7927009 25.5710849,20.5816609 25.5710849,20.5816609 C25.051896,20.2125899 24.4103563,20.0005539 23.7162332,20.0000005 C23.4342995,19.9997792 23.039638,20.0692774 23.039638,20.0692774 C21.8730668,20.3069879 21,21.3142696 21,22.5124501" id="gucci-app-hover-Fill-4" fill="#231F20"/> <path d="M28,22.5123395 C28,23.7104093 28.8730468,24.6927911 30.0397058,24.9308336 C30.0397058,24.9308336 30.4343582,25.0001105 30.7160565,24.9999999 C31.4103927,24.9994465 32.0404619,24.7902878 32.5595244,24.4209955 C32.5595244,24.4209955 32.8754754,24.231978 32.8765064,24.0389766 L33,23.1281956 C32.6418916,23.9874062 32.0394309,24.3093335 31.6891124,24.504991 C31.3965312,24.6518447 31.0188333,24.7577521 30.6657655,24.7577521 L30.6657655,24.7570881 C30.1248224,24.7570881 29.5726527,24.4581793 29.3264675,23.9806556 L29.2959951,23.9329586 C29.0503826,23.5134238 28.9101636,23.0289282 28.9101636,22.5123395 C28.9101636,21.995972 29.0503826,21.5112551 29.2959951,21.0920524 L29.3237181,21.0443553 C29.5697888,20.566721 30.1248224,20.2401457 30.6657655,20.2401457 L30.6657655,20.2394817 C31.0188333,20.2394817 31.3965312,20.3395237 31.6891124,20.4865988 C32.2211199,20.8036568 32.6401732,21.2792992 32.8765064,21.846905 L32.8765064,20.9857024 C32.8754754,20.7929222 32.5709802,20.5816609 32.5709802,20.5816609 C32.0518031,20.2124792 31.4103927,20.0004432 30.7160565,20.0000005 C30.4343582,19.9997792 30.0397058,20.0692774 30.0397058,20.0692774 C28.8730468,20.3070986 28,21.3142696 28,22.5123395" id="gucci-app-hover-Fill-6" fill="#231F20"/> <path d="M36,20 L35,20 C35.1229522,20.1163086 35.203157,20.3081139 35.203157,20.5266261 L35.203157,24.4819294 C35.203157,24.6943141 35.1273891,24.8827664 35.0104949,25 L35.9895904,25 C35.8726962,24.8827664 35.7967577,24.6943141 35.7967577,24.4819294 L35.7967577,20.5266261 C35.7967577,20.3081139 35.8770478,20.1163086 36,20" id="gucci-app-hover-Fill-8" fill="#231F20"/> <path d="M15.4013775,20 L14,20 C14.1723025,20.1163167 14.2848192,20.313107 14.2848192,20.5316344 L14.2841018,20.5332532 L14.2841018,23.4897327 C14.3318108,24.0291139 14.6821552,24.4876746 15.1703654,24.6988021 L15.1753874,24.7013459 C15.5741582,24.8895801 16.0176487,25 16.4911517,25 C16.9715898,25 17.4252439,24.9010267 17.827841,24.7075895 L17.8359719,24.704352 C18.3235843,24.4891777 18.6716568,24.0303857 18.7154199,23.4889233 L18.7151808,23.4885764 L18.7151808,20.5189159 C18.7151808,20.3002729 18.8278171,20.1164323 19,20 L18.181653,20 C18.354075,20.1164323 18.4665917,20.3002729 18.4665917,20.5189159 L18.4665917,23.4885764 L18.465396,23.4984044 C18.431079,23.8250393 18.2666683,24.1138655 18.0191553,24.3126214 L18.0079156,24.3230275 C17.7317056,24.5297614 17.245528,24.6872398 16.7868519,24.6872398 C16.5013153,24.6872398 16.2282141,24.6291971 15.9763966,24.5363519 L15.95033,24.5269864 C15.5000239,24.3749422 15.1676153,23.9667931 15.1159604,23.492392 L15.1157213,23.4858015 L15.1157213,20.5332532 L15.1146451,20.5316344 C15.1146451,20.313107 15.229075,20.1163167 15.4013775,20" id="gucci-app-hover-Fill-11" fill="#231F20"/> <path d="M7.29266667,23.9675494 C7.04244444,23.569194 6.88266667,23.0296648 6.88266667,22.5056989 C6.88266667,21.9906736 7.01866667,21.5072166 7.257,21.0887723 L7.28388889,21.04142 C7.52255556,20.5650272 8.061,20.2393007 8.58544444,20.2393007 L8.58544444,20.2386385 C8.928,20.2386385 9.29433333,20.3386412 9.57833333,20.485334 C10.0942222,20.8014575 10.5004444,21.275974 10.7298889,21.8418836 L10.7298889,20.9830299 C10.7287778,20.7905301 10.4334444,20.580149 10.4334444,20.580149 C9.93,20.2120373 9.30777778,20.000442 8.63444444,20.0000005 C8.36122222,19.9997798 7.97833333,20.0690974 7.97833333,20.0690974 C6.84688889,20.30619 6,21.3108535 6,22.5056989 C6,23.7811204 6.96877778,24.8315909 8.21511111,24.9709988 C8.21511111,24.9709988 8.47277778,25.0094104 8.64433333,24.9978207 C9.37344444,24.9978207 10.0423333,24.742626 10.5658889,24.3174487 L10.6344444,24.2395216 C10.6966667,24.157952 10.7345556,24.0559625 10.7345556,23.9455841 L10.7345556,23.2318779 C10.7345556,23.0205034 10.8398889,22.8328602 11,22.7177356 L9.65988889,22.7177356 C9.82044444,22.8329706 9.92511111,23.0200619 9.92511111,23.2318779 L9.93433333,23.899446 C9.93433333,24.0323415 9.88022222,24.1526539 9.79277778,24.2398527 C9.683,24.3609378 9.263,24.5729745 9.263,24.5729745 C9.05977778,24.6815868 8.82733333,24.7430675 8.58055556,24.7430675 C8.022,24.7430675 7.53322222,24.4295931 7.29244444,23.9671079 L7.29266667,23.9675494" id="gucci-app-hover-Fill-1" fill="#231F20"/> </g><use xmlns:xlink="http://www.w3.org/1999/xlink" xlink:href="#gucci-app-hover-HOVER2_State_GucciAppMobile"/></svg>