<svg version="1.1" xmlns="http://www.w3.org/2000/svg" xmlns:xlink="http://www.w3.org/1999/xlink" width="154.4558" height="47.18234"><g transform="translate(-162.7721,-156.40883)"><g data-paper-data="{&quot;isPaintingLayer&quot;:true}" fill="none" fill-rule="nonzero" stroke="none" stroke-width="0.36196" stroke-linecap="butt" stroke-linejoin="miter" stroke-miterlimit="10" stroke-dasharray="" stroke-dashoffset="0" font-family="none" font-weight="none" font-size="none" text-anchor="none" style="mix-blend-mode: normal"><path d="M177.19723,156.40883h39.01357l-11.58935,37.90753h-39.0138l11.58957,-37.90753" data-paper-data="{&quot;origPos&quot;:null}" id="ID0.22879384364932775" fill="#333e48"/><path d="M227.82856,156.40883h39.01357l-11.58941,37.90753h-39.0138l11.58963,-37.90753" data-paper-data="{&quot;origPos&quot;:null}" id="ID0.08962413156405091" fill="#333e48"/><path d="M278.2141,156.40883h39.0138l-11.58941,37.90753h-39.0138l11.58941,-37.90753" data-paper-data="{&quot;origPos&quot;:null}" id="ID0.3956161574460566" fill="#333e48"/><path d="M200.99181,181.21049c-1.18681,3.88181 -5.61532,5.38157 -9.85008,5.38157h-13.7188l6.86453,-22.45295h13.45421c4.95069,0 6.28926,3.66859 5.34746,6.7491c-0.94186,3.08051 -3.84709,3.92596 -5.21456,3.92596c0,0 4.7357,1.10288 3.11723,6.39632zM189.2964,173.00556h4.0141c2.77898,0 3.53125,-3.75934 1.14926,-3.75934h-4.0141zM191.86493,176.75525h-3.71496l-1.36209,4.45525h4.30165c3.04379,0 3.59909,-4.45541 0.7754,-4.45525z" data-paper-data="{&quot;origPos&quot;:null}" id="ID0.31152327079325914" fill="#ffffff"/><path d="M251.59862,181.21049c-1.18681,3.88181 -5.61532,5.38157 -9.85008,5.38157h-13.71885l6.86458,-22.45295h13.45415c4.95075,0 6.28932,3.66859 5.34752,6.7491c-0.94186,3.08051 -3.84709,3.92596 -5.21456,3.92596c0,0 4.7357,1.10288 3.11723,6.39632zM239.90321,173.00556h4.0141c2.77893,0 3.53125,-3.75934 1.14926,-3.75934h-4.0141zM242.47174,176.75525h-3.71496l-1.36209,4.45525h4.30165c3.04373,0 3.59909,-4.45541 0.7754,-4.45525z" data-paper-data="{&quot;origPos&quot;:null}" id="ID0.807319347281009" fill="#ffffff"/><path d="M295.36941,177.37367h7.70094c-1.8668,6.10577 -5.40748,10.35523 -12.99842,10.35523c-8.52615,0 -10.46644,-6.96753 -8.70626,-12.72502c1.31167,-4.29056 5.21556,-11.66163 13.94328,-11.66163c9.4979,0 9.67901,7.44434 8.90544,9.97471h-7.84777c0.76114,-1.65014 0.09962,-3.92374 -1.84411,-3.92374c-1.94373,0 -4.03219,2.27361 -5.21517,6.14255c-1.18276,3.86894 -0.36321,6.10577 1.76385,6.10577c2.127,-0.00017 3.92114,-3.03469 4.29821,-4.26787z" data-paper-data="{&quot;origPos&quot;:null}" id="ID0.515077589545399" fill="#ffffff"/><path d="M163.9167,199.84731h39.0138l-1.1446,3.74386h-39.0138l1.1446,-3.74386" data-paper-data="{&quot;origPos&quot;:null}" id="ID0.5743462569080293" fill="#0082ca"/><path d="M214.54802,199.84731h39.0138l-1.14465,3.74386h-39.0138l1.14465,-3.74386" data-paper-data="{&quot;origPos&quot;:null}" id="ID0.8346303519792855" fill="#e2231a"/><path d="M264.93373,199.84731h39.01363l-1.14465,3.74386h-39.01357l1.1446,-3.74386" data-paper-data="{&quot;origPos&quot;:null}" id="ID0.12158430041745305" fill="#00af41"/></g></g></svg>