<svg xmlns="http://www.w3.org/2000/svg" width="70" height="70" viewBox="0 0 70 70">
  <g id="gift-icon" transform="translate(11205 -1346)">
    <g id="WHATSAPP" transform="translate(-11205 1346)">
      <g id="Ellipse_8" data-name="Ellipse 8" fill="#171717" stroke="#fff" stroke-width="1">
        <circle cx="35" cy="35" r="35" stroke="none"/>
        <circle cx="35" cy="35" r="34.5" fill="none"/>
      </g>
    </g>
    <g id="Group_5745" data-name="Group 5745" transform="translate(-11189 1367)">
      <path id="Path_44477" data-name="Path 44477" d="M27.926,20.366c.919-1.507,4.059-3.566,10.273-2.317-.258,1.8-1.728,6.177-2.353,9.412-.514-2.917-6.3-2.647-8.235-2.353" transform="translate(-6.056 -4.166)" fill="none" stroke="#fff" stroke-linecap="round" stroke-linejoin="round" stroke-width="1.5"/>
      <path id="Path_44478" data-name="Path 44478" d="M36.4,29.76c-.22,1.005-2.034,1.176-2.941,1.176a10.4,10.4,0,0,1-2.941-.588" transform="translate(-6.607 -6.464)" fill="none" stroke="#fff" stroke-linecap="round" stroke-miterlimit="10" stroke-width="1.5"/>
      <path id="Path_44479" data-name="Path 44479" d="M17.843,19.11C15.968,17.235,11.765,16.169,7.164,18A22.9,22.9,0,0,1,9.6,27.43c.524-1.6,2.42-2.437,4.13-2.437a21.693,21.693,0,0,1,4.117.588" transform="translate(-2.171 -4.05)" fill="none" stroke="#fff" stroke-linecap="round" stroke-linejoin="round" stroke-width="1.5"/>
      <path id="Path_44480" data-name="Path 44480" d="M10.166,29.864c.229.94,1.375,1.484,2.952,1.1,1.32-.322,2.348-.551,2.348-.551" transform="translate(-2.742 -6.484)" fill="none" stroke="#fff" stroke-linecap="round" stroke-miterlimit="10" stroke-width="1.5"/>
      <path id="Path_44481" data-name="Path 44481" d="M25.642,26.331c-.7.9-3.664.772-5.294,0,.772-1.7,1.03-5.552,0-7.146.919-1.751,5.643-1.861,5.882.675S26.4,25.351,25.642,26.331Z" transform="translate(-4.676 -4.212)" fill="none" stroke="#fff" stroke-linecap="round" stroke-linejoin="round" stroke-width="1.5"/>
      <path id="Path_44482" data-name="Path 44482" d="M19.238,31c-.321,3.128-1.771,4.666-3.248,7.376a17.682,17.682,0,0,0,8.236.588,32.42,32.42,0,0,0-.938-7.154" transform="translate(-3.848 -6.7)" fill="none" stroke="#fff" stroke-linecap="round" stroke-linejoin="round" stroke-width="1.5"/>
      <path id="Path_44483" data-name="Path 44483" d="M27.05,31c-.046,2.253,2.384,6.013,4.39,7.964a21.435,21.435,0,0,1-7.63,3.376A5.811,5.811,0,0,1,23,39.91" transform="translate(-5.18 -6.7)" fill="none" stroke="#fff" stroke-linecap="round" stroke-linejoin="round" stroke-width="1.5"/>
      <path id="Path_44484" data-name="Path 44484" d="M5.86,22.87H1V1H38.261V22.87H33.4" transform="translate(-1 -1)" fill="none" stroke="#fff" stroke-linecap="round" stroke-linejoin="round" stroke-width="1.5"/>
      <line id="Line_3" data-name="Line 3" x2="5.081" transform="translate(5.081 5.081)" fill="none" stroke="#fff" stroke-linecap="round" stroke-linejoin="round" stroke-width="1.5"/>
      <line id="Line_4" data-name="Line 4" x2="10.162" transform="translate(5.081 8.468)" fill="none" stroke="#fff" stroke-linecap="round" stroke-linejoin="round" stroke-width="1.5"/>
    </g>
  </g>
</svg>
