<svg xmlns="http://www.w3.org/2000/svg" viewBox="0 0 78.02603 37.95006"><symbol viewBox="0 0 78.02603 37.95006" id="svg-icon-garden"><title>GucciGarden_Footer2</title><path class="cls-1" d="M64.6,24.8l-2-3.9A20.349,20.349,0,0,1,55,23.6V24l.8-.1a3.98815,3.98815,0,0,1,.3,2.1,3.75011,3.75011,0,0,1-.1,1.1c0,.1-.2.2-.4.4s-.4.3-.4.4a1.88165,1.88165,0,0,1,.9,1.9v.9a1.50386,1.50386,0,0,1-.4,1.1c-.2.1-.6.4-.6.5,1.9,1.2,3.3,2.1,4,2.6a26.218,26.218,0,0,0,2.5-2.2v4.4c0,.8.4,1.2,1.3,1.2.8,0,1.3-.4,1.3-1.1a.59871.59871,0,0,0-.6-.7h-.2a.52878.52878,0,0,0-.7.4c-.1.3-.2.5-.3.5a.26522.26522,0,0,1-.3-.3V32.4l1.3-1.1-.2-.6-1.1,1V26.5Zm-3.9,7.7-1.4-1V28a23.28681,23.28681,0,0,0,2.1-1.3l.1,5.3Zm-1.3-5.1V23l.3-.2A20.308,20.308,0,0,1,61.5,26Z" transform="translate(-0.874 -0.44996)"/><path class="cls-1" d="M28.71252,31.5q-.6,0-.6-1.2a3.75014,3.75014,0,0,1,.1-1,1.39043,1.39043,0,0,1,1-1.2,2.16319,2.16319,0,0,1-1.1-1.2V25.4a2.20282,2.20282,0,0,1,.9-1.6,17.68787,17.68787,0,0,0-2.2-1.6,9.8,9.8,0,0,0-2.2-1.3,8.48617,8.48617,0,0,1-2.6,1.1,7.06655,7.06655,0,0,0-2.5,1.1,2.80846,2.80846,0,0,0-1.1,2.5,1.92173,1.92173,0,0,0,.4,1.2c.3.5.6.8,1,.8q.45,0,3-2.7l-.2-.2-.6.3c-.9-.3-1.3-.7-1.3-1.2a1.06062,1.06062,0,0,1,.9-.9l3,2v.6l.1,1.7a8.76937,8.76937,0,0,1-4.2,1.1l-2.5-.3-.1.5.6.2v3l-.7.3a37.09449,37.09449,0,0,1,3.2,3,40.51393,40.51393,0,0,0,3.6-3.1,4.103,4.103,0,0,1-.1,1.1l2.5,2.1c.5-.7,1-1.4,1.6-2.1a15.57782,15.57782,0,0,0,1.6-2l-.4-.4C29.41248,31.2,29.11249,31.5,28.71252,31.5Zm-4.3-.6c-.8.7-1.3,1.1-1.5,1.1-.1,0-.4-.2-.8-.7V28.5l2.3-.7a14.76387,14.76387,0,0,1,.1,2.1A3.40094,3.40094,0,0,1,24.41248,30.9Z" transform="translate(-0.874 -0.44996)"/><path class="cls-1" d="M78.7,30.7l-.1-.1A10.14092,10.14092,0,0,1,77.1,32a.62183.62183,0,0,1-.6-.4c-.1-.1-.1-.2-.1-.4V28.6c.2-.3.4-.5.6-.8-.3-.2-.6-.5-.6-.8V25c.5-.5.9-.9,1.1-1.1a11.28108,11.28108,0,0,1-1.8-1.2c-.6-.5-1.1-.9-1.7-1.4a15.99029,15.99029,0,0,1-3.6,3.1v-.9L68,21.4q-1.8,2.25-3,3.6l.4.4q.9-.90005,1.2-.9c.4,0,.6.4.6,1.1v1.5a1.27223,1.27223,0,0,1-.7.9,1.14333,1.14333,0,0,1,.7.8v2.1a2.03051,2.03051,0,0,1-1.1,1.7L68.9,35c1.5-1.4,2.3-2.2,2.6-2.4a2.33614,2.33614,0,0,1-.7-.7,2.48614,2.48614,0,0,1-.1-.8V28.7a1.55482,1.55482,0,0,1,.6-.8,1.44575,1.44575,0,0,1-.7-1V25l1.5-1.1,1,1.1v2.1a1.555,1.555,0,0,1-.6.8,1.55482,1.55482,0,0,1,.6.8v3.8s.9.8,2.6,2.4a42.77749,42.77749,0,0,0,3.2-4Z" transform="translate(-0.874 -0.44996)"/><path class="cls-1" d="M2.8,33.3l1.5-.8a7.326,7.326,0,0,0,2.3,1.6,5.83434,5.83434,0,0,0,2.6.6,6.80346,6.80346,0,0,0,2-.2A6.35583,6.35583,0,0,0,14.7,32a6.47014,6.47014,0,0,0,1.6-4,6.30765,6.30765,0,0,0-1.2-4,4.10138,4.10138,0,0,0-3.7-1.8.349.349,0,0,0-.1.2c0,.1,0,.2-.1.2q.75,0,1.2,1.2a3.08015,3.08015,0,0,1,.3,1.3v5.2a4.767,4.767,0,0,1-.4,2c-.4,1.1-.8,1.5-1.5,1.7a5.55316,5.55316,0,0,1-1.7.2,3.15785,3.15785,0,0,1-2.2-1.3,6.7241,6.7241,0,0,1-.7-1.1l4-1.9V25.5a2.62764,2.62764,0,0,1,.7-1.5,1.0573,1.0573,0,0,1-.6-.7,3.09211,3.09211,0,0,1-.2-.8V16.6l.8-.6q1.5,3.45,1.8,3.9a25.88232,25.88232,0,0,1,2.5-1.2q0-.15005-2.1-4.8L5.9,18.3v.6a8.33858,8.33858,0,0,1,1.2-.8v1.6a21.62914,21.62914,0,0,0,0,2.7c0,.9-.2,1.4-.8,1.4-.8,0-1.2-1-1.2-2.9a10.32307,10.32307,0,0,1,.4-3,6.597,6.597,0,0,1,1.2-2.7.30963.30963,0,0,0-.1-.2H6.4a5.84873,5.84873,0,0,0-2.9,2.9,10.73536,10.73536,0,0,0-1.4,3.9A4.98321,4.98321,0,0,1,1.8,23c0,.2-.4.4-.9.7a2.36136,2.36136,0,0,1,.8.9,3.596,3.596,0,0,1,.2,1.1,11.18642,11.18642,0,0,0,1.4,5.9c.2.3.3.5.5.8C2,33.4,1,34.2.9,34.9a2.15482,2.15482,0,0,0,.4,1.6,1.41984,1.41984,0,0,0,1.4.7,3.55151,3.55151,0,0,0,1.9-.8,4.16769,4.16769,0,0,1,1.8-.8.6012.6012,0,0,0-.1.4.63172.63172,0,0,0,.7.7.67515.67515,0,0,0,.6-.4A1.7259,1.7259,0,0,1,8,36c.2,0,.3.2.3.5,0,.7-.3,1-1,1a.90941.90941,0,0,1-.8-.4c0,.5.3.8.9.8.9,0,1.3-.5,1.3-1.5a2.11212,2.11212,0,0,0,1,.4c.2,0,.3-.1.4-.1.1-.1.2-.1.4-.1.1,0,.2.1.4.1a.60124.60124,0,0,0,.4.1,2.35261,2.35261,0,0,0,.8-.2c.3-.1.6-.1.8-.2a1.70193,1.70193,0,0,1,.7.1,1.70222,1.70222,0,0,0,.7.1,2.76935,2.76935,0,0,0,.9-.1v-.1c0-.1,0-.2-.1-.2l-.7.1c-.3,0-.5-.1-.8-.1-.1-.2-.3-.2-.6-.2a1.85336,1.85336,0,0,0-.7.2,1.94989,1.94989,0,0,1-.8.1.60149.60149,0,0,1-.4-.1c-.1,0-.2-.1-.4-.1-.1,0-.3.1-.4.1a.60124.60124,0,0,1-.4.1,3.50618,3.50618,0,0,1-1.4-.6,4.41917,4.41917,0,0,0-1.6-.6,6.22085,6.22085,0,0,0-2.6.9,2.35261,2.35261,0,0,0,.2-.8,1.48937,1.48937,0,0,0-.4-.9,1.2087,1.2087,0,0,0-1-.3.76386.76386,0,0,0-.5.2c-.2.2-.3.3-.3.4,0,.2.1.4.3.4q.15005,0,.3-.3c.1-.2.2-.3.4-.3a.7128.7128,0,0,1,.6.3.908.908,0,0,1,.3.7A1.24,1.24,0,0,1,3,36.7a.86434.86434,0,0,0,.3-.6.76047.76047,0,0,0-.6-.8H2.5a1.42131,1.42131,0,0,0-.6.2.51942.51942,0,0,1-.4-.2.44645.44645,0,0,1,0-.5A2.51326,2.51326,0,0,1,2.8,33.3ZM5,25.5a1.13545,1.13545,0,0,1,.3-.8,1.09991,1.09991,0,0,1,1-.6q.90005,0,.9,1.8v5L6,31.5a7.90231,7.90231,0,0,1-1.1-4.7A5.70351,5.70351,0,0,1,5,25.5Z" transform="translate(-0.874 -0.44996)"/><path class="cls-1" d="M39.4,23a3.467,3.467,0,0,1-1.1-1.9c-.4.8-.7,1.3-.8,1.6a13.35927,13.35927,0,0,1-2,2.1l.1-1.1a3.83719,3.83719,0,0,1-2.2-2.6c-2,2.6-3,3.9-3,4,.1.1.1.2.2.4q.45007-.45.9-.9a.54427.54427,0,0,1,.5.3.8641.8641,0,0,1,.3.6V27a1.204,1.204,0,0,1-.7,1,1.326,1.326,0,0,1,.6,1v2.6a3.81872,3.81872,0,0,1-.9.9A6.35562,6.35562,0,0,1,34.8,35l3.1-3.4v5.6c0,.8.4,1.2,1.3,1.2.8,0,1.2-.4,1.2-1.1a.59871.59871,0,0,0-.6-.7h-.2c-.4,0-.6.2-.6.7a.3.3,0,1,1-.6,0V26.8c1-1.3,1.8-2,2.6-2.1v-.2A7.52,7.52,0,0,1,39.4,23Zm-1.6,8-1.2,1.2a7.63718,7.63718,0,0,1-1.1-.8V29a1.0999,1.0999,0,0,1,.6-1,.928.928,0,0,1-.7-.9V25.9l.9-1A15.93366,15.93366,0,0,1,37.8,27Z" transform="translate(-0.874 -0.44996)"/><path class="cls-1" d="M46.8,27.7a.92864.92864,0,0,0-.11456.07837A.12193.12193,0,0,0,46.8,27.7Z" transform="translate(-0.874 -0.44996)"/><path class="cls-1" d="M53.1,31.2c-.1,0-.3-.4-.7-1.1V28.5a.871.871,0,0,1,.6-.8c-.4,0-.7-.3-.6-.6V18.7a1.01955,1.01955,0,0,1,.5-.8c.2-.2.5-.4.7-.6l-3.8-3a23.95221,23.95221,0,0,0-2.2,2.1c-1.2,1.1-1.7,2-1.6,2.6a1.181,1.181,0,0,0,1.3,1.2.713.713,0,0,0,.6-.3.908.908,0,0,0,.3-.7.75839.75839,0,0,0-.2-.4c-.1-.1-.2-.2-.3-.2s-.2.1-.3.2a4.20625,4.20625,0,0,0,.2.5c0,.3-.1.4-.4.4a.68353.68353,0,0,1-.7-.7,1.38264,1.38264,0,0,1,.5-.9,4.51859,4.51859,0,0,0,.7-.7l1.2,1v5.3l.1.1a6.147,6.147,0,0,1-2-1.3,15.36979,15.36979,0,0,1-1.9-1.7,9.35719,9.35719,0,0,1-2.9,2.7l.7,1.1V27a5.54811,5.54811,0,0,1-.6.8,1.82824,1.82824,0,0,1,.6.8v2a1.25691,1.25691,0,0,1-.9,1.2,12.28829,12.28829,0,0,1,3.1,2.9,16.75112,16.75112,0,0,1,3.7-3.4,4.28207,4.28207,0,0,0,.6,2.2,12.8807,12.8807,0,0,0,1.7,1.6A12.91268,12.91268,0,0,1,54.5,31l-.5-.5C53.7,30.9,53.4,31.2,53.1,31.2ZM48.8,27a1.06758,1.06758,0,0,1-.7.9,1.52474,1.52474,0,0,1,.7,1.2,7.52058,7.52058,0,0,0,0,1.5l-1.7,1.2a3.84923,3.84923,0,0,1-.9-1.1V28.6a.76386.76386,0,0,1,.2-.5.78316.78316,0,0,1,.2854-.32159c-.099.00183-.21588-.10883-.2854-.17841a.76359.76359,0,0,1-.2-.5V24.7l1-.9,1.6.9Z" transform="translate(-0.874 -0.44996)"/><path class="cls-1" d="M28.5954.799H26.44734a1.0289,1.0289,0,0,1,.43924.84238h0V6.32255A2.35265,2.35265,0,0,0,28.24641,8.236h0a4.6391,4.6391,0,0,0,4.06147,0h0a2.31654,2.31654,0,0,0,1.34781-1.92544h0V1.62328A.9928.9928,0,0,1,34.09493.799h-1.2395a.9928.9928,0,0,1,.43924.82433V6.3406a1.92544,1.92544,0,0,1-.68594,1.28764h0a3.32138,3.32138,0,0,1-3.1529.32492,1.99764,1.99764,0,0,1-1.2756-1.63662h0V1.64735h0A1.0289,1.0289,0,0,1,28.61947.805" transform="translate(-0.874 -0.44996)"/><path class="cls-1" d="M38.42115,4.60771A4.08554,4.08554,0,0,0,41.68235,8.609a7.49115,7.49115,0,0,0,1.08306.11432,4.92792,4.92792,0,0,0,2.94833-.9567s.50542-.31288.50542-.63178l.19856-1.51026A4.33224,4.33224,0,0,1,44.32381,7.905a3.71249,3.71249,0,0,1-1.63662.42119h0a2.4068,2.4068,0,0,1-2.142-1.28764L40.497,6.96035a4.8136,4.8136,0,0,1,0-4.69927l.04212-.07822A2.479,2.479,0,0,1,42.68118.84709h0a3.70045,3.70045,0,0,1,1.63662.40916,4.71733,4.71733,0,0,1,1.90137,2.2323v-1.408c0-.3189-.48737-.66789-.48737-.66789A5.24682,5.24682,0,0,0,42.76541.45a5.14454,5.14454,0,0,0-1.08306.11432,4.13367,4.13367,0,0,0-3.26121,4.04342" transform="translate(-0.874 -0.44996)"/><path class="cls-1" d="M15.24972,4.61974a4.75943,4.75943,0,0,1,.6017-2.35264l.04212-.07822A2.485,2.485,0,0,1,18.0416.85912h0a3.71248,3.71248,0,0,1,1.63662.40916,4.72334,4.72334,0,0,1,1.90137,2.25035v-1.426c0-.3189-.48738-.66789-.48738-.66789A5.00012,5.00012,0,0,0,18.13787.48005a5.37317,5.37317,0,0,0-1.08306.11432,4.12766,4.12766,0,0,0,.3911,8.135s.43322.04212.71.04212a4.964,4.964,0,0,0,3.16494-1.14323l.11432-.12636a.80628.80628,0,0,0,.16246-.48738V5.81111a1.053,1.053,0,0,1,.43924-.85441H19.82865a1.053,1.053,0,0,1,.43924.85441V6.91823a.79424.79424,0,0,1-.23466.5656,4.71127,4.71127,0,0,1-.87246.55356,2.3707,2.3707,0,0,1-1.12518.2828,2.4068,2.4068,0,0,1-2.01569-1.10111A4.88579,4.88579,0,0,1,15.24972,4.61974Z" transform="translate(-0.874 -0.44996)"/><path class="cls-1" d="M51.27344,4.60771A4.08554,4.08554,0,0,0,54.53464,8.609a7.49115,7.49115,0,0,0,1.08306.11432,4.92792,4.92792,0,0,0,2.94833-.9567s.50542-.31288.50542-.63178L59.27,5.62458A4.33224,4.33224,0,0,1,57.1761,7.905a3.71249,3.71249,0,0,1-1.63662.42119h0a2.4068,2.4068,0,0,1-2.14806-1.28764l-.04814-.07822a4.8136,4.8136,0,0,1,0-4.69927l.04212-.07822A2.479,2.479,0,0,1,55.53347.85311h0a3.70045,3.70045,0,0,1,1.63662.40916,4.71731,4.71731,0,0,1,1.90137,2.22629v-1.408c0-.3189-.48737-.66789-.48737-.66789A5.24681,5.24681,0,0,0,55.6177.45a5.14454,5.14454,0,0,0-1.08306.11432,4.13367,4.13367,0,0,0-3.26121,4.04342" transform="translate(-0.874 -0.44996)"/><path class="cls-1" d="M65.72023.799H63.57217a1.01687,1.01687,0,0,1,.43924.83636V7.905a1.01688,1.01688,0,0,1-.41517.81831h2.09993A1.01688,1.01688,0,0,1,65.281,7.905V1.63531A1.01086,1.01086,0,0,1,65.72023.799" transform="translate(-0.874 -0.44996)"/></symbol><use xmlns:xlink="http://www.w3.org/1999/xlink" xlink:href="#svg-icon-garden"/></svg>