<svg xmlns="http://www.w3.org/2000/svg" viewBox="0 0 15 13.5"><symbol viewBox="0 0 15 13.5" id="svg-icon-saved-items"><title>saved-items</title> <g fill="currentColor"> <path d="M12.5,5.3l-5,5.2l-5-5.3c0,0-0.8-0.9-0.8-1.5c0-1,0.8-1.8,1.7-1.8c0.6,0,1.1,0.3,1.4,0.9l2.6,2.7l2.7-2.8l0,0&#10;&#9;&#9;&#9;c0.3-0.5,0.8-0.9,1.5-0.9c0.9,0,1.7,0.8,1.7,1.8C13.4,4.4,12.5,5.3,12.5,5.3 M11.5,0c-1.1,0-2.1,0.6-2.7,1.5L7.5,2.8L6.2,1.5&#10;&#9;&#9;&#9;C5.6,0.6,4.6,0,3.5,0C1.5,0,0,1.7,0,3.8c0,1.2,0.5,2.3,1.4,3l1.3,1.4l4.9,5.3l0,0l0,0l4.9-5.3l1.2-1.4C14.5,6.1,15,5,15,3.8&#10;&#9;&#9;&#9;C15,1.7,13.5,0,11.5,0"/> </g> </symbol><use xmlns:xlink="http://www.w3.org/1999/xlink" xlink:href="#svg-icon-saved-items"/></svg>