<svg xmlns="http://www.w3.org/2000/svg" viewBox="0 0 34 34"><symbol viewBox="0 0 34 34" id="svg-icon-gucci-app"><title>gucci-app</title><desc>Created with Sketch.</desc> <!-- Generator: Sketch 51.3 (57544) - http://www.bohemiancoding.com/sketch -->   <g id="gucci-app-Page-1" stroke="none" stroke-width="1" fill="none" fill-rule="evenodd"> <g id="gucci-app-gucci-app" fill="#E5DFD9" fill-rule="nonzero"> <path d="M7.21428571,0 L26.7857143,0 C30.7700543,-5.07530526e-16 34,3.22994573 34,7.21428571 L34,26.7857143 C34,30.7700543 30.7700543,34 26.7857143,34 L7.21428571,34 C3.22994573,34 4.0602442e-15,30.7700543 4.0602442e-15,26.7857143 L0,7.21428571 C0,3.22994573 3.22994573,3.55271368e-15 7.21428571,0 Z M7.21428571,1.85714286 C4.25561741,1.85714286 1.85714286,4.25561741 1.85714286,7.21428571 L1.85714286,26.7857143 C1.85714286,29.7443826 4.25561741,32.1428571 7.21428571,32.1428571 L26.7857143,32.1428571 C29.7443826,32.1428571 32.1428571,29.7443826 32.1428571,26.7857143 L32.1428571,7.21428571 C32.1428571,4.25561741 29.7443826,1.85714286 26.7857143,1.85714286 L7.21428571,1.85714286 Z" id="gucci-app-MouseOver"/> <path d="M17.3469388,17.3573054 C17.3469388,18.3546976 18.0739005,19.172773 19.0452496,19.3707956 C19.0452496,19.3707956 19.3738657,19.4286635 19.6086187,19.4285713 C20.1865824,19.4281106 20.711128,19.2537697 21.1435277,18.9463694 C21.1435277,18.9463694 21.4065159,18.7891677 21.4076606,18.6283723 L21.5102041,17.8698235 C21.2121126,18.5852478 20.7102695,18.853578 20.4190461,19.0164006 C20.1750403,19.138771 19.8607326,19.2268629 19.5664566,19.2268629 L19.5664566,19.2263101 C19.1161238,19.2263101 18.6565383,18.9775149 18.4516421,18.5798112 L18.4262685,18.540004 C18.2215631,18.1907692 18.1048066,17.7871682 18.1048066,17.3573054 C18.1048066,16.9273505 18.2215631,16.5236573 18.4262685,16.1744226 L18.4493527,16.1348918 C18.6541535,15.7371881 19.1161238,15.465172 19.5664566,15.465172 L19.5664566,15.464527 C19.8607326,15.464527 20.1750403,15.5481037 20.4190461,15.6705663 C20.8617477,15.9344734 21.2106817,16.3305185 21.4076606,16.8029529 L21.4076606,16.0860542 C21.4065159,15.9253509 21.1530666,15.7496278 21.1530666,15.7496278 C20.7207624,15.4423197 20.1865824,15.2657673 19.6086187,15.2653066 C19.3738657,15.2651223 19.0452496,15.3229902 19.0452496,15.3229902 C18.0739005,15.5209206 17.3469388,16.3596368 17.3469388,17.3573054" id="gucci-app-Fill-4"/> <path d="M22.2040816,17.3572133 C22.2040816,18.3547898 22.9310267,19.172773 23.9024489,19.3709798 C23.9024489,19.3709798 24.2310575,19.4286635 24.4656144,19.4285713 C25.0437556,19.4281106 25.5683846,19.253954 26.0005835,18.9464616 C26.0005835,18.9464616 26.2636612,18.7890756 26.2645196,18.6283723 L26.3673469,17.8700078 C26.0691669,18.5854321 25.5675261,18.8534859 25.2758324,19.0164006 C25.0322137,19.1386789 24.7177225,19.2268629 24.4237394,19.2268629 L24.4237394,19.2263101 C23.9733215,19.2263101 23.5135557,18.9774227 23.3085688,18.5798112 L23.2831959,18.5400961 C23.0786859,18.1907692 22.9619321,17.7873525 22.9619321,17.3572133 C22.9619321,16.9272583 23.0786859,16.5236573 23.2831959,16.1746069 L23.3062796,16.1348918 C23.511171,15.7371881 23.9733215,15.4652642 24.4237394,15.4652642 L24.4237394,15.4647113 C24.7177225,15.4647113 25.0322137,15.5480116 25.2758324,15.6704741 C25.7188101,15.9344734 26.0677361,16.3305185 26.2645196,16.8031372 L26.2645196,16.0860542 C26.2636612,15.9255352 26.0101223,15.7496278 26.0101223,15.7496278 C25.5778279,15.4422276 25.0437556,15.2656751 24.4656144,15.2653066 C24.2310575,15.2651223 23.9024489,15.3229902 23.9024489,15.3229902 C22.9310267,15.5210127 22.2040816,16.3596368 22.2040816,17.3572133" id="gucci-app-Fill-6"/> <path d="M28.4489796,15.2653061 L27.755102,15.2653061 C27.8404158,15.3621509 27.8960681,15.5218581 27.8960681,15.703803 L27.8960681,18.9971983 C27.8960681,19.1740411 27.8434945,19.3309565 27.7623842,19.4285714 L28.4417566,19.4285714 C28.3606464,19.3309565 28.3079543,19.1740411 28.3079543,18.9971983 L28.3079543,15.703803 C28.3079543,15.5218581 28.3636658,15.3621509 28.4489796,15.2653061" id="gucci-app-Fill-8"/> <path d="M12.2689021,15.2653061 L11.1020408,15.2653061 C11.245509,15.3621576 11.3391964,15.5260156 11.3391964,15.7079732 L11.338599,15.709321 L11.338599,18.1710427 C11.3783241,18.6201601 11.6700394,19.0019821 12.0765492,19.1777781 L12.0807307,19.1798961 C12.4127685,19.3366299 12.7820422,19.4285714 13.1763059,19.4285714 C13.5763442,19.4285714 13.9540807,19.346161 14.2893044,19.1850949 L14.2960745,19.1823993 C14.7020865,19.0032337 14.9919101,18.6212191 15.0283497,18.1703688 L15.0281505,18.17008 L15.0281505,15.6973831 C15.0281505,15.5153292 15.1219375,15.3622539 15.2653061,15.2653061 L14.583907,15.2653061 C14.7274747,15.3622539 14.8211621,15.5153292 14.8211621,15.6973831 L14.8211621,18.17008 L14.8201665,18.1782633 C14.7915923,18.4502368 14.6546952,18.6907288 14.4486028,18.8562235 L14.439244,18.8648882 C14.2092569,19.0370258 13.8044397,19.1681507 13.4225216,19.1681507 C13.1847686,19.1681507 12.9573701,19.1198213 12.7476935,19.0425134 L12.7259891,19.0347152 C12.3510403,18.9081151 12.0742592,18.5682685 12.0312487,18.173257 L12.0310495,18.1677694 L12.0310495,15.709321 L12.0301535,15.7079732 C12.0301535,15.5260156 12.1254339,15.3621576 12.2689021,15.2653061" id="gucci-app-Fill-11"/> <path d="M5.93348571,18.5688983 C5.72513741,18.2372065 5.59209796,17.7879658 5.59209796,17.351684 C5.59209796,16.9228466 5.70533878,16.5202946 5.90378776,16.1718757 L5.92617687,16.1324477 C6.1249034,15.7357777 6.57324082,15.4645606 7.00992109,15.4645606 L7.00992109,15.4640092 C7.29515102,15.4640092 7.60017959,15.5472768 7.83665306,15.669421 C8.26620952,15.9326422 8.6044517,16.3277497 8.79549932,16.7989562 L8.79549932,16.083829 C8.79457415,15.9235434 8.54866395,15.748369 8.54866395,15.748369 C8.12946939,15.4418596 7.61137415,15.2656742 7.05072109,15.2653066 C6.82322177,15.2651227 6.50440816,15.3228402 6.50440816,15.3228402 C5.56230748,15.5202562 4.85714286,16.3567923 4.85714286,17.351684 C4.85714286,18.4136676 5.66379864,19.2883451 6.7015619,19.4044235 C6.7015619,19.4044235 6.91610884,19.436407 7.0589551,19.4267568 C7.6660517,19.4267568 8.22300408,19.2142682 8.65894422,18.860243 L8.71602721,18.7953568 C8.76783673,18.7274376 8.79938503,18.6425157 8.79938503,18.5506088 L8.79938503,17.9563391 C8.79938503,17.7803375 8.88709116,17.6240959 9.02040816,17.528237 L7.90456054,17.528237 C8.03824762,17.6241878 8.12539864,17.7799699 8.12539864,17.9563391 L8.13307755,18.5121918 C8.13307755,18.6228476 8.08802177,18.7230261 8.01521088,18.7956325 C7.92380408,18.8964543 7.5740898,19.0730074 7.5740898,19.0730074 C7.40487619,19.1634437 7.21133061,19.2146358 7.00585034,19.2146358 C6.54076735,19.2146358 6.13378503,18.9536204 5.93330068,18.5685307 L5.93348571,18.5688983" id="gucci-app-Fill-1"/> </g> </g> </symbol><use xmlns:xlink="http://www.w3.org/1999/xlink" xlink:href="#svg-icon-gucci-app"/></svg>