<svg xmlns="http://www.w3.org/2000/svg" viewBox="0 0 283.2 271.76"><symbol viewBox="0 0 283.2 271.76" id="svg-icon-equilibrium"><title>equilibrium</title> <style type="text/css"> .st0{fill:#eeeeee;} </style> <g> <path class="st0" d="M226.02,104.18c0-1.19-0.04-2.38-0.11-3.55h11.69l-0.04-1.29c-0.53-16.08-5.1-31.83-13.21-45.57l-0.36-0.61&#10;&#9;&#9;h-24.32c-2.02-1.44-4.12-2.77-6.32-3.97h0.28l-0.82-1.77c-2.26-4.89-4.83-9.49-7.65-13.69c-8.73-13.01-19.57-21.83-31.35-25.5&#10;&#9;&#9;l-3.47-1.08l2.08,2.99c4.77,6.87,8.89,17.68,12.03,31.47c-0.35-0.01-0.69-0.03-1.03-0.03c-1.01,0-2.02,0.04-3.03,0.09&#10;&#9;&#9;c-0.77-3.27-1.59-6.41-2.47-9.35c-2.61-8.66-5.71-15.65-8.97-20.24c-2.66-3.73-5.37-5.79-7.65-5.79&#10;&#9;&#9;c-5.33,0-11.86,10.22-16.62,26.03c-0.88,2.94-1.71,6.08-2.47,9.35c-1.01-0.05-2.02-0.09-3.03-0.09c-0.35,0-0.69,0.02-1.03,0.03&#10;&#9;&#9;c3.14-13.79,7.26-24.6,12.03-31.47l2.07-2.99l-3.47,1.08c-11.77,3.67-22.61,12.49-31.35,25.5c-2.82,4.2-5.39,8.81-7.65,13.69&#10;&#9;&#9;l-0.82,1.77h0.28c-2.19,1.2-4.29,2.53-6.32,3.97H58.59l-0.36,0.61C50.12,67.5,45.55,83.26,45.01,99.34l-0.04,1.29h11.69&#10;&#9;&#9;c-0.07,1.18-0.11,2.36-0.11,3.55c0,0.14,0.01,0.28,0.01,0.42H44.97l0.04,1.29c0.54,16.08,5.1,31.83,13.21,45.57l0.36,0.61h20.26&#10;&#9;&#9;c1.67,1.41,3.41,2.74,5.23,3.97H61.07l1.39,1.97c0.79,1.11,1.6,2.21,2.42,3.28v0c2.56,3.32,5.35,6.49,8.29,9.43&#10;&#9;&#9;c10.17,10.17,22.1,17.76,35.46,22.56l7.06,2.54l-5.86-4.69c-10.07-8.07-18.67-19.94-24.85-34.34l-0.1-0.24&#10;&#9;&#9;c1.91,1.25,3.9,2.4,5.95,3.45c2,4.07,4.2,7.94,6.59,11.5c8.74,13.01,19.58,21.83,31.35,25.5l3.47,1.08l-2.08-2.99&#10;&#9;&#9;c-4.4-6.34-8.24-16.02-11.28-28.31c0.1,0,0.19,0.01,0.29,0.01c1.26,0,2.52-0.05,3.78-0.13c0.55,2.15,1.12,4.25,1.72,6.25&#10;&#9;&#9;c2.6,8.66,5.71,15.65,8.97,20.24c2.66,3.73,5.37,5.79,7.65,5.79c5.33,0,11.86-10.22,16.62-26.03c0.6-2,1.17-4.09,1.72-6.25&#10;&#9;&#9;c1.26,0.08,2.52,0.13,3.78,0.13c0.1,0,0.19-0.01,0.29-0.01c-3.04,12.29-6.88,21.97-11.28,28.31l-2.07,2.99l3.47-1.08&#10;&#9;&#9;c11.77-3.67,22.61-12.49,31.35-25.5c2.39-3.56,4.59-7.43,6.59-11.5c2.05-1.04,4.04-2.19,5.95-3.45l-0.1,0.24&#10;&#9;&#9;c-6.19,14.4-14.78,26.27-24.86,34.34l-5.86,4.69l7.06-2.54c13.36-4.8,25.29-12.39,35.46-22.56c2.94-2.94,5.73-6.12,8.29-9.43&#10;&#9;&#9;c0.83-1.07,1.64-2.17,2.42-3.28l1.39-1.97h-23c1.82-1.23,3.56-2.56,5.23-3.97h20.26l0.36-0.61c8.11-13.73,12.68-29.49,13.21-45.57&#10;&#9;&#9;l0.04-1.29h-11.59C226.01,104.46,226.02,104.32,226.02,104.18z M102.87,188.27c-10.36-4.64-19.73-11.12-27.92-19.31&#10;&#9;&#9;c-2.87-2.87-5.59-5.96-8.08-9.19c-0.31-0.4-0.62-0.81-0.93-1.22h17.08C88.19,170.36,94.97,180.49,102.87,188.27z M216.64,158.54&#10;&#9;&#9;c-0.31,0.41-0.62,0.82-0.93,1.22c-2.49,3.23-5.21,6.33-8.08,9.19c-8.2,8.2-17.57,14.67-27.93,19.31&#10;&#9;&#9;c7.89-7.78,14.68-17.91,19.86-29.73H216.64z M203.07,55.65h19.48c7.46,12.86,11.75,27.5,12.46,42.47h-9.29&#10;&#9;&#9;c-1.64-17.04-10.09-32.08-22.62-42.36C203.09,55.73,203.08,55.69,203.07,55.65z M213.28,98.13h-2.64&#10;&#9;&#9;c-0.13-4.66-0.5-9.24-1.04-13.75C211.45,88.68,212.7,93.3,213.28,98.13z M171.34,68.56c-0.47-4.4-1.02-8.71-1.68-12.91h6.81&#10;&#9;&#9;c7.8,2.1,14.86,6.02,20.67,11.29c2.64,9.87,4.19,20.44,4.52,31.19h-28.59c-0.05-3.6-0.15-7.16-0.31-10.67&#10;&#9;&#9;c3.34-0.01,6.78-0.02,6.78-0.02C177.73,80.85,175.13,74.27,171.34,68.56z M156.44,11.82c9.93,4.04,19.08,12.03,26.64,23.3&#10;&#9;&#9;c2.4,3.58,4.62,7.46,6.62,11.57h-1.49c-6.56-2.83-13.69-4.58-21.18-5C164.22,29.19,160.62,19.02,156.44,11.82z M166.88,54.06&#10;&#9;&#9;l0.09,0.55c0.53,3.25,0.99,6.56,1.41,9.93c-1.46-1.8-3.02-3.48-4.67-5.07c-0.26-1.79-0.53-3.54-0.82-5.27l-0.04-0.26&#10;&#9;&#9;c0.19,0,0.38-0.01,0.56-0.01C164.57,53.92,165.73,53.98,166.88,54.06z M119.66,79.43c0.78-1.38,1.62-2.73,2.54-4.02&#10;&#9;&#9;c5.31-7.36,11.62-12.65,19.08-16.45c7.47,3.79,13.78,9.09,19.08,16.45c0.93,1.29,1.77,2.64,2.54,4.02&#10;&#9;&#9;c0.65,6.11,1.1,12.38,1.19,18.7h-45.64C118.55,91.8,119.01,85.54,119.66,79.43z M159.62,55.84c-0.08-0.06-0.16-0.12-0.24-0.19h0.21&#10;&#9;&#9;C159.6,55.71,159.61,55.78,159.62,55.84z M122.98,55.65h0.21c-0.08,0.06-0.16,0.12-0.24,0.19&#10;&#9;&#9;C122.96,55.78,122.97,55.71,122.98,55.65z M127.06,33.03c5.32-17.66,11.55-24.25,14.22-24.25c1.08,0,3.12,1.24,5.61,4.74&#10;&#9;&#9;c3.11,4.37,6.09,11.11,8.61,19.51c0.83,2.77,1.61,5.73,2.34,8.81c-3.18,0.28-6.34,0.77-9.44,1.53c-2.37,0.58-4.78,1.17-7.13,1.91&#10;&#9;&#9;c-2.35-0.74-4.76-1.33-7.13-1.91c-3.1-0.76-6.26-1.25-9.44-1.53C125.45,38.76,126.23,35.8,127.06,33.03z M119.17,53.92&#10;&#9;&#9;c0.19,0,0.38,0.01,0.56,0.01l-0.04,0.26c-0.29,1.73-0.56,3.49-0.82,5.27c-1.65,1.59-3.21,3.27-4.67,5.07&#10;&#9;&#9;c0.41-3.37,0.88-6.69,1.41-9.93l0.09-0.55C116.85,53.98,118,53.92,119.17,53.92z M109.81,87.46c-0.16,3.51-0.26,7.07-0.31,10.67&#10;&#9;&#9;H80.91c0.33-10.75,1.88-21.32,4.52-31.19c5.81-5.27,12.87-9.19,20.67-11.29h6.81c-0.66,4.2-1.21,8.51-1.68,12.91&#10;&#9;&#9;c-3.79,5.71-6.39,12.29-8.2,18.88C103.03,87.44,106.47,87.45,109.81,87.46z M92.88,46.68c1.99-4.11,4.21-7.99,6.62-11.57&#10;&#9;&#9;c7.56-11.27,16.72-19.26,26.64-23.3c-4.18,7.2-7.78,17.37-10.59,29.86c-7.49,0.43-14.63,2.17-21.18,5H92.88z M47.57,98.13&#10;&#9;&#9;c0.71-14.97,5-29.61,12.46-42.47H79.5c-0.01,0.04-0.02,0.08-0.04,0.11C66.95,66.05,58.49,81.09,56.85,98.13H47.57z M72.97,84.38&#10;&#9;&#9;c-0.54,4.51-0.9,9.09-1.04,13.75h-2.64C69.87,93.3,71.12,88.68,72.97,84.38z M68.91,104.18c0-1.2,0.06-2.38,0.14-3.55h5.32&#10;&#9;&#9;l0.03-1.22c0.16-7.42,0.86-14.67,2.06-21.71c1.62-2.6,3.46-5.05,5.51-7.31c-2.15,9.26-3.38,19.05-3.6,28.96l-0.03,1.28h33.62&#10;&#9;&#9;l0.01-1.24c0.04-4.03,0.15-8.01,0.32-11.93c2.08,0,3.69,0.01,3.69,0.01c0.05-0.16,0.18-0.52,0.34-0.93&#10;&#9;&#9;c-0.21,4.24-0.34,8.52-0.38,12.82l-0.01,1.26h50.69l-0.01-1.26c-0.04-4.31-0.17-8.59-0.38-12.83c0.16,0.41,0.29,0.77,0.34,0.93&#10;&#9;&#9;c0,0,1.61,0,3.69-0.01c0.18,3.92,0.28,7.9,0.32,11.93l0.01,1.24h33.62l-0.03-1.28c-0.22-9.91-1.44-19.7-3.6-28.96&#10;&#9;&#9;c2.05,2.26,3.89,4.71,5.51,7.31c1.2,7.04,1.9,14.28,2.06,21.71l0.03,1.22h5.32c0.08,1.18,0.14,2.36,0.14,3.55&#10;&#9;&#9;c0,0.14-0.01,0.28-0.01,0.42h-5.45l-0.03,1.22c-0.19,9-1.18,17.74-2.9,26.16c-1.69,2.55-3.62,4.93-5.74,7.12&#10;&#9;&#9;c2.82-10.5,4.42-21.78,4.67-33.22l0.03-1.28H170.6l-0.01,1.24c-0.01,1.14-0.04,2.26-0.06,3.39h-3.97c0.02-1.12,0.05-2.24,0.06-3.36&#10;&#9;&#9;l0.01-1.26h-50.69l0.01,1.26c0.01,1.12,0.04,2.24,0.06,3.36h-3.97c-0.02-1.13-0.05-2.25-0.06-3.39l-0.01-1.24H78.35l0.03,1.28&#10;&#9;&#9;c0.25,11.44,1.85,22.72,4.67,33.22c-2.12-2.19-4.04-4.57-5.74-7.12c-1.72-8.42-2.71-17.16-2.9-26.16l-0.03-1.22h-5.45&#10;&#9;&#9;C68.92,104.46,68.91,104.32,68.91,104.18z M213.57,107.1c-0.37,6.48-1.97,12.63-4.57,18.22c0.9-5.94,1.46-12.02,1.64-18.22H213.57z&#10;&#9;&#9; M184.99,149.57h-15.33c0.47-3.03,0.89-6.12,1.27-9.25c2.34-3.41,4.34-7.05,5.93-10.9c1.3-3.14,2.13-6.8,3.05-9.99&#10;&#9;&#9;c1.16-4.03,1.67-10.21,1.67-10.21h-8.55c0.01-0.71,0.04-1.41,0.04-2.12h28.59c-0.38,12.29-2.35,24.33-5.72,35.37&#10;&#9;&#9;C192.63,145.28,188.96,147.68,184.99,149.57z M166.29,121.7c-0.08,0.21-0.17,0.41-0.25,0.61c0.01-0.2,0.02-0.41,0.03-0.61H166.29z&#10;&#9;&#9; M156.26,138.05c-4.2,4.76-9.33,8.55-14.97,11.29c-5.64-2.74-10.77-6.53-14.97-11.29c-2.58-2.93-4.93-6.07-6.84-9.46&#10;&#9;&#9;c-0.18-2.27-0.34-4.57-0.47-6.89h0.38v0h11.86c-0.27-4.05-0.44-8.23-0.52-12.48h-5.76v0h-6.46c-0.01-0.71-0.04-1.41-0.05-2.12&#10;&#9;&#9;h45.64c-0.01,0.71-0.03,1.42-0.05,2.12h-6.46v0h-5.76c-0.08,4.26-0.25,8.43-0.52,12.48h11.86v0h0.38&#10;&#9;&#9;c-0.14,2.31-0.29,4.62-0.47,6.89C161.18,131.98,158.84,135.13,156.26,138.05z M116.5,121.7c0.01,0.2,0.02,0.41,0.03,0.61&#10;&#9;&#9;c-0.08-0.21-0.17-0.41-0.25-0.61H116.5z M102.66,119.43c0.92,3.2,1.75,6.85,3.05,9.99c1.6,3.85,3.6,7.5,5.94,10.9&#10;&#9;&#9;c0.38,3.13,0.8,6.22,1.27,9.25H97.58c-3.97-1.89-7.64-4.29-10.95-7.11c-3.37-11.04-5.34-23.08-5.72-35.37h28.59&#10;&#9;&#9;c0.01,0.71,0.03,1.41,0.04,2.12h-8.55C100.99,109.22,101.5,115.39,102.66,119.43z M73.58,125.32c-2.6-5.59-4.2-11.74-4.57-18.22&#10;&#9;&#9;h2.93C72.11,113.3,72.68,119.38,73.58,125.32z M60.02,149.57c-7.46-12.86-11.75-27.5-12.46-42.47h9.06&#10;&#9;&#9;c0.77,16.7,8.08,31.69,19.44,42.47H60.02z M126.14,193.41c-9.92-4.04-19.08-12.03-26.64-23.3c-1.77-2.63-3.44-5.44-4.99-8.37&#10;&#9;&#9;c6.74,2.89,14.08,4.63,21.79,4.98C118.98,177.77,122.32,186.83,126.14,193.41z M103.91,152.07h11.94l-0.24-1.45&#10;&#9;&#9;c-0.33-2.05-0.64-4.13-0.92-6.22c1.49,1.83,3.09,3.57,4.78,5.22c0.08,0.47,0.14,0.95,0.22,1.41l0.17,1.04h2.26&#10;&#9;&#9;c0.81,0.71,1.64,1.4,2.48,2.07c-1.81,0.2-3.62,0.3-5.44,0.3C113.85,154.44,108.72,153.6,103.91,152.07z M155.51,172.19&#10;&#9;&#9;c-5.32,17.66-11.55,24.25-14.22,24.25c-1.08,0-3.12-1.24-5.61-4.74c-3.11-4.37-6.09-11.11-8.62-19.51&#10;&#9;&#9;c-0.55-1.83-1.08-3.75-1.59-5.73c1.38-0.14,2.76-0.31,4.13-0.54c0.08-0.01,0.15-0.03,0.23-0.04c3.91-0.68,7.75-1.5,11.45-2.68&#10;&#9;&#9;c3.71,1.18,7.54,2.01,11.45,2.68c0.08,0.01,0.15,0.03,0.23,0.04c1.37,0.23,2.75,0.4,4.13,0.54&#10;&#9;&#9;C156.59,168.44,156.06,170.36,155.51,172.19z M157.97,154.14c0.85-0.67,1.67-1.36,2.48-2.07h2.26l0.17-1.04&#10;&#9;&#9;c0.08-0.46,0.14-0.94,0.22-1.41c1.69-1.65,3.29-3.39,4.78-5.22c-0.29,2.1-0.59,4.18-0.92,6.22l-0.24,1.45h11.94&#10;&#9;&#9;c-4.81,1.53-9.94,2.37-15.26,2.37C161.59,154.44,159.77,154.33,157.97,154.14z M183.08,170.11c-7.56,11.27-16.71,19.25-26.64,23.29&#10;&#9;&#9;c3.82-6.58,7.16-15.64,9.84-26.69c7.71-0.35,15.05-2.09,21.79-4.98C186.52,164.68,184.85,167.48,183.08,170.11z M235.01,107.1&#10;&#9;&#9;c-0.71,14.97-5,29.61-12.46,42.47h-16.04c11.35-10.78,18.67-25.77,19.44-42.47H235.01z"/> <path class="st0" d="M197.59,48.43l0.33,0.76h23.58l-1.39-1.97c-0.79-1.12-1.6-2.22-2.42-3.28v0c-2.56-3.31-5.34-6.49-8.29-9.43&#10;&#9;&#9;c-10.17-10.17-22.1-17.76-35.46-22.56l-7.06-2.54l5.86,4.69C182.81,22.16,191.4,34.03,197.59,48.43z M207.63,36.27&#10;&#9;&#9;c2.87,2.87,5.59,5.96,8.08,9.19v0c0.31,0.4,0.62,0.81,0.93,1.22h-17.08c-5.18-11.81-11.96-21.95-19.86-29.73&#10;&#9;&#9;C190.06,21.59,199.43,28.07,207.63,36.27z"/> <path class="st0" d="M84.98,48.43c6.19-14.4,14.78-26.27,24.86-34.34l5.86-4.69l-7.06,2.54c-13.36,4.8-25.29,12.39-35.46,22.56&#10;&#9;&#9;c-2.94,2.94-5.73,6.12-8.29,9.43c-0.82,1.06-1.64,2.17-2.42,3.28l-1.39,1.97h23.58L84.98,48.43z M65.94,46.68&#10;&#9;&#9;c0.31-0.41,0.62-0.82,0.93-1.22c2.49-3.23,5.21-6.32,8.08-9.19c8.2-8.2,17.57-14.67,27.93-19.31&#10;&#9;&#9;c-7.89,7.78-14.68,17.91-19.85,29.73H65.94z"/> <path class="st0" d="M141.29-0.19L141.29-0.19c-56.68,0-102.8,46.11-102.8,102.8c0,56.68,46.11,102.8,102.8,102.8&#10;&#9;&#9;c56.68,0,102.8-46.11,102.8-102.8S197.97-0.18,141.29-0.19z M141.29,202.91c-55.3,0-100.3-44.99-100.3-100.3&#10;&#9;&#9;c0-55.3,44.99-100.3,100.3-100.3c55.3,0,100.3,44.99,100.3,100.3S196.59,202.91,141.29,202.91z"/> </g> <g> <g> <path class="st0" d="M9.96,250.43v1.68c0,0.27,0.09,0.49,0.27,0.68c0.18,0.19,0.4,0.28,0.65,0.28h10.43&#10;&#9;&#9;&#9;c0.26,0,0.47,0.09,0.65,0.28c0.18,0.19,0.27,0.41,0.27,0.68v5.52c0,0.27-0.09,0.49-0.27,0.68c-0.18,0.19-0.4,0.28-0.65,0.28H10.88&#10;&#9;&#9;&#9;c-0.26,0-0.48,0.09-0.65,0.28c-0.18,0.19-0.27,0.41-0.27,0.68v1.52c0,0.27,0.09,0.49,0.27,0.68c0.18,0.19,0.4,0.28,0.65,0.28&#10;&#9;&#9;&#9;h11.97c0.26,0,0.47,0.09,0.65,0.28c0.18,0.19,0.27,0.41,0.27,0.68v5.52c0,0.27-0.09,0.49-0.27,0.68c-0.18,0.19-0.4,0.28-0.65,0.28&#10;&#9;&#9;&#9;H3.26c-0.26,0-0.47-0.09-0.65-0.28c-0.18-0.19-0.27-0.41-0.27-0.68v-27.34c0-0.27,0.09-0.49,0.27-0.68&#10;&#9;&#9;&#9;c0.18-0.19,0.4-0.28,0.65-0.28h19.59c0.26,0,0.47,0.09,0.65,0.28c0.18,0.19,0.27,0.41,0.27,0.68v5.44c0,0.27-0.09,0.49-0.27,0.68&#10;&#9;&#9;&#9;c-0.18,0.19-0.4,0.28-0.65,0.28H10.88c-0.26,0-0.48,0.09-0.65,0.28C10.05,249.94,9.96,250.16,9.96,250.43z"/> <path class="st0" d="M57.41,264.82v5.64c0,0.27-0.09,0.49-0.27,0.68c-0.18,0.19-0.4,0.28-0.65,0.28H43.21&#10;&#9;&#9;&#9;c-2.59,0-4.84-0.39-6.74-1.18c-1.9-0.79-3.47-1.85-4.71-3.2c-1.24-1.35-2.17-2.92-2.77-4.72c-0.6-1.8-0.9-3.72-0.9-5.78&#10;&#9;&#9;&#9;c0-2.05,0.37-3.98,1.12-5.8c0.74-1.81,1.76-3.39,3.06-4.74c1.29-1.35,2.81-2.41,4.54-3.2c1.73-0.79,3.58-1.18,5.56-1.18&#10;&#9;&#9;&#9;s3.84,0.39,5.58,1.18c1.74,0.79,3.26,1.85,4.56,3.2c1.29,1.35,2.32,2.93,3.06,4.74c0.74,1.81,1.12,3.74,1.12,5.8&#10;&#9;&#9;&#9;c0,1.28-0.22,2.5-0.65,3.66c-0.44,1.16-0.99,2.14-1.65,2.94c-0.33,0.48-0.23,0.72,0.31,0.72h1.81c0.26,0,0.47,0.09,0.65,0.28&#10;&#9;&#9;&#9;C57.32,264.33,57.41,264.55,57.41,264.82z M42.39,263.62c0.92,0,1.78-0.19,2.59-0.58c0.81-0.39,1.52-0.9,2.13-1.54&#10;&#9;&#9;&#9;c0.61-0.64,1.09-1.39,1.44-2.24c0.34-0.85,0.52-1.76,0.52-2.72s-0.17-1.87-0.52-2.74c-0.35-0.87-0.83-1.63-1.44-2.28&#10;&#9;&#9;&#9;c-0.61-0.65-1.32-1.17-2.13-1.54c-0.81-0.37-1.67-0.56-2.59-0.56c-0.92,0-1.79,0.19-2.59,0.56c-0.81,0.37-1.52,0.89-2.13,1.54&#10;&#9;&#9;&#9;s-1.09,1.41-1.44,2.28c-0.34,0.87-0.52,1.78-0.52,2.74s0.17,1.87,0.52,2.72c0.35,0.85,0.83,1.6,1.44,2.24s1.32,1.15,2.13,1.54&#10;&#9;&#9;&#9;C40.6,263.43,41.46,263.62,42.39,263.62z"/> <path class="st0" d="M62.1,243.11c0-0.27,0.09-0.49,0.27-0.68c0.18-0.19,0.4-0.28,0.65-0.28h5.78c0.26,0,0.47,0.09,0.65,0.28&#10;&#9;&#9;&#9;c0.18,0.19,0.27,0.41,0.27,0.68v16.19c0,1.04,0.16,1.9,0.48,2.58c0.32,0.68,0.72,1.21,1.2,1.6c0.48,0.39,0.99,0.66,1.53,0.82&#10;&#9;&#9;&#9;c0.54,0.16,1.03,0.24,1.47,0.24c0.44,0,0.93-0.08,1.47-0.24c0.54-0.16,1.04-0.43,1.51-0.82c0.46-0.39,0.86-0.92,1.18-1.6&#10;&#9;&#9;&#9;c0.32-0.68,0.48-1.54,0.48-2.58v-16.19c0-0.27,0.09-0.49,0.27-0.68c0.18-0.19,0.4-0.28,0.65-0.28h5.78c0.26,0,0.47,0.09,0.65,0.28&#10;&#9;&#9;&#9;c0.18,0.19,0.27,0.41,0.27,0.68v16.19c0,1.89-0.29,3.61-0.86,5.16c-0.58,1.55-1.4,2.86-2.48,3.96c-1.08,1.09-2.37,1.94-3.88,2.54&#10;&#9;&#9;&#9;c-1.51,0.6-3.19,0.9-5.03,0.9c-1.84,0-3.52-0.3-5.03-0.9c-1.51-0.6-2.81-1.45-3.88-2.54c-1.08-1.09-1.91-2.41-2.5-3.96&#10;&#9;&#9;&#9;c-0.59-1.55-0.88-3.26-0.88-5.16V243.11z"/> <path class="st0" d="M100.15,271.37h-5.78c-0.28,0-0.5-0.09-0.67-0.28c-0.17-0.19-0.25-0.41-0.25-0.68v-27.3&#10;&#9;&#9;&#9;c0-0.27,0.08-0.49,0.25-0.68c0.17-0.19,0.39-0.28,0.67-0.28h5.78c0.26,0,0.47,0.09,0.65,0.28c0.18,0.19,0.27,0.41,0.27,0.68v27.3&#10;&#9;&#9;&#9;c0,0.27-0.09,0.49-0.27,0.68C100.63,271.28,100.41,271.37,100.15,271.37z"/> <path class="st0" d="M128.6,264.98v5.44c0,0.27-0.09,0.49-0.27,0.68c-0.18,0.19-0.4,0.28-0.65,0.28h-19.21&#10;&#9;&#9;&#9;c-0.28,0-0.51-0.09-0.67-0.28c-0.17-0.19-0.25-0.41-0.25-0.68v-27.34c0-0.27,0.08-0.49,0.25-0.68c0.17-0.19,0.39-0.28,0.67-0.28&#10;&#9;&#9;&#9;h5.77c0.26,0,0.47,0.09,0.65,0.28c0.18,0.19,0.27,0.41,0.27,0.68v19.99c0,0.27,0.08,0.49,0.25,0.68c0.17,0.19,0.39,0.28,0.67,0.28&#10;&#9;&#9;&#9;h11.58c0.26,0,0.47,0.09,0.65,0.28C128.51,264.49,128.6,264.71,128.6,264.98z"/> <path class="st0" d="M139.03,271.37h-5.78c-0.28,0-0.5-0.09-0.67-0.28c-0.17-0.19-0.25-0.41-0.25-0.68v-27.3&#10;&#9;&#9;&#9;c0-0.27,0.08-0.49,0.25-0.68c0.17-0.19,0.39-0.28,0.67-0.28h5.78c0.26,0,0.47,0.09,0.65,0.28c0.18,0.19,0.27,0.41,0.27,0.68v27.3&#10;&#9;&#9;&#9;c0,0.27-0.09,0.49-0.27,0.68C139.5,271.28,139.28,271.37,139.03,271.37z"/> <path class="st0" d="M165.72,256.3c0.41,0.24,0.82,0.53,1.23,0.88c0.41,0.35,0.79,0.77,1.14,1.28c0.35,0.51,0.63,1.09,0.85,1.76&#10;&#9;&#9;&#9;c0.22,0.67,0.33,1.43,0.33,2.28c0,1.73-0.26,3.16-0.79,4.3c-0.53,1.13-1.24,2.04-2.14,2.72c-0.9,0.68-1.93,1.16-3.1,1.44&#10;&#9;&#9;&#9;c-1.17,0.28-2.39,0.42-3.68,0.42h-12.2c-0.26,0-0.47-0.09-0.65-0.28c-0.18-0.19-0.27-0.41-0.27-0.68v-27.34&#10;&#9;&#9;&#9;c0-0.27,0.09-0.49,0.27-0.68c0.18-0.19,0.4-0.28,0.65-0.28h11.62c1.23,0,2.41,0.14,3.54,0.42c1.13,0.28,2.12,0.74,2.98,1.38&#10;&#9;&#9;&#9;c0.86,0.64,1.55,1.47,2.08,2.5c0.53,1.03,0.79,2.29,0.79,3.78c0,1.2-0.29,2.24-0.87,3.12c-0.58,0.88-1.2,1.57-1.87,2.08&#10;&#9;&#9;&#9;C165.18,255.73,165.21,256.04,165.72,256.3z M154.98,253.23h3.58c0.51,0,0.92-0.21,1.23-0.62c0.31-0.41,0.46-0.87,0.46-1.38&#10;&#9;&#9;&#9;c0-0.48-0.19-0.89-0.56-1.24c-0.37-0.35-0.73-0.52-1.06-0.52h-3.66c-0.26,0-0.47,0.09-0.65,0.28c-0.18,0.19-0.27,0.41-0.27,0.68&#10;&#9;&#9;&#9;v1.84c0,0.27,0.09,0.49,0.27,0.68C154.51,253.13,154.73,253.23,154.98,253.23z M159.03,259.82h-4.04c-0.26,0-0.47,0.09-0.65,0.28&#10;&#9;&#9;&#9;c-0.18,0.19-0.27,0.41-0.27,0.68v2.28c0,0.27,0.09,0.49,0.27,0.68c0.18,0.19,0.4,0.28,0.65,0.28h4.31c0.46,0,0.9-0.2,1.31-0.6&#10;&#9;&#9;&#9;s0.62-0.87,0.62-1.4c0-0.48-0.2-0.97-0.6-1.46C160.22,260.07,159.69,259.82,159.03,259.82z"/> <path class="st0" d="M181.38,271.37h-5.76c-0.26,0-0.48-0.09-0.66-0.28c-0.18-0.19-0.27-0.41-0.27-0.68v-27.34&#10;&#9;&#9;&#9;c0-0.27,0.09-0.49,0.27-0.68c0.18-0.19,0.4-0.28,0.65-0.28h11.97c1.49,0,2.86,0.26,4.12,0.78s2.33,1.25,3.21,2.18&#10;&#9;&#9;&#9;c0.89,0.93,1.58,2.04,2.08,3.32c0.5,1.28,0.75,2.69,0.75,4.24c0,0.85-0.1,1.7-0.29,2.54c-0.19,0.84-0.47,1.63-0.83,2.38&#10;&#9;&#9;&#9;c-0.36,0.75-0.78,1.42-1.27,2.02s-1.04,1.1-1.65,1.5c-0.21,0.16-0.34,0.35-0.4,0.58c-0.06,0.23-0.02,0.45,0.13,0.66&#10;&#9;&#9;&#9;c0.97,1.33,2,2.7,3.08,4.12c1.08,1.41,2.04,2.71,2.89,3.88c0.15,0.21,0.19,0.45,0.12,0.7c-0.08,0.25-0.24,0.38-0.5,0.38h-7.16&#10;&#9;&#9;&#9;c-0.26,0-0.53-0.07-0.83-0.22c-0.3-0.15-0.52-0.33-0.67-0.54c-0.82-1.12-1.63-2.25-2.43-3.4c-0.8-1.15-1.6-2.3-2.39-3.48&#10;&#9;&#9;&#9;c-0.15-0.21-0.37-0.39-0.65-0.54c-0.28-0.15-0.55-0.22-0.8-0.22h-0.84c-0.26,0-0.47,0.09-0.65,0.28&#10;&#9;&#9;&#9;c-0.18,0.19-0.27,0.41-0.27,0.68v6.48c0,0.27-0.09,0.49-0.27,0.68C181.86,271.28,181.64,271.37,181.38,271.37z M183.23,255.62&#10;&#9;&#9;&#9;h4.06c0.31,0,0.63-0.06,0.96-0.18c0.33-0.12,0.64-0.31,0.92-0.56c0.28-0.25,0.51-0.57,0.69-0.94c0.18-0.37,0.27-0.81,0.27-1.32&#10;&#9;&#9;&#9;c0-0.27-0.05-0.58-0.13-0.94c-0.09-0.36-0.24-0.71-0.46-1.04c-0.22-0.33-0.51-0.61-0.88-0.84c-0.37-0.23-0.82-0.34-1.36-0.34&#10;&#9;&#9;&#9;h-4.06c-0.26,0-0.47,0.09-0.65,0.28c-0.18,0.19-0.27,0.41-0.27,0.68v4.24c0,0.27,0.09,0.49,0.27,0.68&#10;&#9;&#9;&#9;C182.76,255.53,182.97,255.62,183.23,255.62z"/> <path class="st0" d="M210.41,271.37h-5.78c-0.28,0-0.5-0.09-0.67-0.28c-0.17-0.19-0.25-0.41-0.25-0.68v-27.3&#10;&#9;&#9;&#9;c0-0.27,0.08-0.49,0.25-0.68c0.17-0.19,0.39-0.28,0.67-0.28h5.78c0.26,0,0.47,0.09,0.65,0.28c0.18,0.19,0.27,0.41,0.27,0.68v27.3&#10;&#9;&#9;&#9;c0,0.27-0.09,0.49-0.27,0.68C210.88,271.28,210.66,271.37,210.41,271.37z"/> <path class="st0" d="M217.69,243.11c0-0.27,0.09-0.49,0.27-0.68c0.18-0.19,0.4-0.28,0.65-0.28h5.78c0.26,0,0.47,0.09,0.65,0.28&#10;&#9;&#9;&#9;c0.18,0.19,0.27,0.41,0.27,0.68v16.19c0,1.04,0.16,1.9,0.48,2.58c0.32,0.68,0.72,1.21,1.2,1.6c0.48,0.39,0.99,0.66,1.53,0.82&#10;&#9;&#9;&#9;c0.54,0.16,1.03,0.24,1.47,0.24c0.44,0,0.93-0.08,1.47-0.24c0.54-0.16,1.04-0.43,1.51-0.82c0.46-0.39,0.86-0.92,1.18-1.6&#10;&#9;&#9;&#9;c0.32-0.68,0.48-1.54,0.48-2.58v-16.19c0-0.27,0.09-0.49,0.27-0.68c0.18-0.19,0.4-0.28,0.65-0.28h5.78c0.26,0,0.47,0.09,0.65,0.28&#10;&#9;&#9;&#9;c0.18,0.19,0.27,0.41,0.27,0.68v16.19c0,1.89-0.29,3.61-0.86,5.16c-0.58,1.55-1.4,2.86-2.48,3.96c-1.08,1.09-2.37,1.94-3.88,2.54&#10;&#9;&#9;&#9;c-1.51,0.6-3.19,0.9-5.03,0.9c-1.84,0-3.52-0.3-5.03-0.9c-1.51-0.6-2.81-1.45-3.88-2.54c-1.08-1.09-1.91-2.41-2.5-3.96&#10;&#9;&#9;&#9;c-0.59-1.55-0.88-3.26-0.88-5.16V243.11z"/> <path class="st0" d="M280.24,243.11v27.3c0,0.27-0.09,0.49-0.27,0.68c-0.18,0.19-0.4,0.28-0.65,0.28h-5.78&#10;&#9;&#9;&#9;c-0.26,0-0.47-0.09-0.65-0.28c-0.18-0.19-0.27-0.41-0.27-0.68v-12.87c0-0.27-0.12-0.41-0.35-0.44c-0.23-0.03-0.42,0.07-0.58,0.28&#10;&#9;&#9;&#9;l-6.48,10.83c-0.13,0.21-0.33,0.32-0.62,0.32c-0.28,0-0.5-0.11-0.66-0.32l-6.48-10.83c-0.13-0.21-0.31-0.31-0.54-0.28&#10;&#9;&#9;&#9;c-0.23,0.03-0.35,0.17-0.35,0.44v12.87c0,0.27-0.09,0.49-0.27,0.68c-0.18,0.19-0.4,0.28-0.65,0.28h-5.78&#10;&#9;&#9;&#9;c-0.26,0-0.47-0.09-0.65-0.28c-0.18-0.19-0.27-0.41-0.27-0.68v-27.3c0-0.27,0.09-0.49,0.27-0.68c0.18-0.19,0.4-0.28,0.65-0.28&#10;&#9;&#9;&#9;h5.36c0.26,0,0.52,0.08,0.8,0.24c0.28,0.16,0.49,0.35,0.61,0.56l7.41,11.27c0.15,0.21,0.33,0.32,0.54,0.32&#10;&#9;&#9;&#9;c0.21,0,0.37-0.11,0.5-0.32l7.41-11.27c0.15-0.21,0.37-0.4,0.65-0.56c0.28-0.16,0.55-0.24,0.8-0.24h5.36&#10;&#9;&#9;&#9;c0.26,0,0.47,0.09,0.65,0.28C280.15,242.62,280.24,242.85,280.24,243.11z"/> </g> <path class="st0" d="M2.34,228.41v-10.96c0-0.28,0.09-0.5,0.28-0.67c0.19-0.16,0.42-0.25,0.68-0.25h275.97&#10;&#9;&#9;c0.27,0,0.5,0.08,0.68,0.25c0.19,0.17,0.28,0.39,0.28,0.67v10.96c0,0.25-0.09,0.47-0.28,0.65c-0.19,0.18-0.42,0.27-0.68,0.27H3.3&#10;&#9;&#9;c-0.27,0-0.49-0.09-0.68-0.27C2.43,228.87,2.34,228.66,2.34,228.41z"/> </g> </symbol><use xmlns:xlink="http://www.w3.org/1999/xlink" xlink:href="#svg-icon-equilibrium"/></svg>