<svg xmlns="http://www.w3.org/2000/svg" viewBox="0 0 283.2 271.76"><symbol viewBox="0 0 283.2 271.76" id="svg-icon-equilibrium"><style>.st0{fill:#ffffff}</style><path class="st0" d="M226.02 104.18c0-1.19-.04-2.38-.11-3.55h11.69l-.04-1.29c-.53-16.08-5.1-31.83-13.21-45.57l-.36-.61h-24.32a62.16 62.16 0 0 0-6.32-3.97h.28l-.82-1.77c-2.26-4.89-4.83-9.49-7.65-13.69-8.73-13.01-19.57-21.83-31.35-25.5l-3.47-1.08 2.08 2.99c4.77 6.87 8.89 17.68 12.03 31.47-.35-.01-.69-.03-1.03-.03-1.01 0-2.02.04-3.03.09-.77-3.27-1.59-6.41-2.47-9.35-2.61-8.66-5.71-15.65-8.97-20.24-2.66-3.73-5.37-5.79-7.65-5.79-5.33 0-11.86 10.22-16.62 26.03-.88 2.94-1.71 6.08-2.47 9.35-1.01-.05-2.02-.09-3.03-.09-.35 0-.69.02-1.03.03 3.14-13.79 7.26-24.6 12.03-31.47l2.07-2.99-3.47 1.08c-11.77 3.67-22.61 12.49-31.35 25.5-2.82 4.2-5.39 8.81-7.65 13.69l-.82 1.77h.28a64.45 64.45 0 0 0-6.32 3.97H58.59l-.36.61C50.12 67.5 45.55 83.26 45.01 99.34l-.04 1.29h11.69c-.07 1.18-.11 2.36-.11 3.55 0 .14.01.28.01.42H44.97l.04 1.29c.54 16.08 5.1 31.83 13.21 45.57l.36.61h20.26c1.67 1.41 3.41 2.74 5.23 3.97h-23l1.39 1.97c.79 1.11 1.6 2.21 2.42 3.28 2.56 3.32 5.35 6.49 8.29 9.43 10.17 10.17 22.1 17.76 35.46 22.56l7.06 2.54-5.86-4.69c-10.07-8.07-18.67-19.94-24.85-34.34l-.1-.24c1.91 1.25 3.9 2.4 5.95 3.45 2 4.07 4.2 7.94 6.59 11.5 8.74 13.01 19.58 21.83 31.35 25.5l3.47 1.08-2.08-2.99c-4.4-6.34-8.24-16.02-11.28-28.31.1 0 .19.01.29.01 1.26 0 2.52-.05 3.78-.13.55 2.15 1.12 4.25 1.72 6.25 2.6 8.66 5.71 15.65 8.97 20.24 2.66 3.73 5.37 5.79 7.65 5.79 5.33 0 11.86-10.22 16.62-26.03.6-2 1.17-4.09 1.72-6.25 1.26.08 2.52.13 3.78.13.1 0 .19-.01.29-.01-3.04 12.29-6.88 21.97-11.28 28.31l-2.07 2.99 3.47-1.08c11.77-3.67 22.61-12.49 31.35-25.5 2.39-3.56 4.59-7.43 6.59-11.5a60.57 60.57 0 0 0 5.95-3.45l-.1.24c-6.19 14.4-14.78 26.27-24.86 34.34l-5.86 4.69 7.06-2.54c13.36-4.8 25.29-12.39 35.46-22.56 2.94-2.94 5.73-6.12 8.29-9.43.83-1.07 1.64-2.17 2.42-3.28l1.39-1.97h-23c1.82-1.23 3.56-2.56 5.23-3.97H224l.36-.61c8.11-13.73 12.68-29.49 13.21-45.57l.04-1.29h-11.59c-.01-.14 0-.28 0-.42zm-123.15 84.09c-10.36-4.64-19.73-11.12-27.92-19.31a95.52 95.52 0 0 1-8.08-9.19c-.31-.4-.62-.81-.93-1.22h17.08c5.17 11.81 11.95 21.94 19.85 29.72zm113.77-29.73c-.31.41-.62.82-.93 1.22a94.332 94.332 0 0 1-8.08 9.19c-8.2 8.2-17.57 14.67-27.93 19.31 7.89-7.78 14.68-17.91 19.86-29.73h17.08zM203.07 55.65h19.48c7.46 12.86 11.75 27.5 12.46 42.47h-9.29c-1.64-17.04-10.09-32.08-22.62-42.36-.01-.03-.02-.07-.03-.11zm10.21 42.48h-2.64c-.13-4.66-.5-9.24-1.04-13.75 1.85 4.3 3.1 8.92 3.68 13.75zm-41.94-29.57c-.47-4.4-1.02-8.71-1.68-12.91h6.81a50.19 50.19 0 0 1 20.67 11.29c2.64 9.87 4.19 20.44 4.52 31.19h-28.59c-.05-3.6-.15-7.16-.31-10.67l6.78-.02c-1.81-6.59-4.41-13.17-8.2-18.88zm-14.9-56.74c9.93 4.04 19.08 12.03 26.64 23.3 2.4 3.58 4.62 7.46 6.62 11.57h-1.49a62.156 62.156 0 0 0-21.18-5c-2.81-12.5-6.41-22.67-10.59-29.87zm10.44 42.24.09.55c.53 3.25.99 6.56 1.41 9.93a56.21 56.21 0 0 0-4.67-5.07c-.26-1.79-.53-3.54-.82-5.27l-.04-.26c.19 0 .38-.01.56-.01 1.16-.01 2.32.05 3.47.13zm-47.22 25.37a45.32 45.32 0 0 1 2.54-4.02c5.31-7.36 11.62-12.65 19.08-16.45 7.47 3.79 13.78 9.09 19.08 16.45.93 1.29 1.77 2.64 2.54 4.02.65 6.11 1.1 12.38 1.19 18.7h-45.64c.1-6.33.56-12.59 1.21-18.7zm39.96-23.59c-.08-.06-.16-.12-.24-.19h.21l.03.19zm-36.64-.19h.21c-.08.06-.16.12-.24.19l.03-.19zm4.08-22.62c5.32-17.66 11.55-24.25 14.22-24.25 1.08 0 3.12 1.24 5.61 4.74 3.11 4.37 6.09 11.11 8.61 19.51.83 2.77 1.61 5.73 2.34 8.81-3.18.28-6.34.77-9.44 1.53-2.37.58-4.78 1.17-7.13 1.91-2.35-.74-4.76-1.33-7.13-1.91-3.1-.76-6.26-1.25-9.44-1.53.75-3.08 1.53-6.04 2.36-8.81zm-7.89 20.89c.19 0 .38.01.56.01l-.04.26c-.29 1.73-.56 3.49-.82 5.27a56.21 56.21 0 0 0-4.67 5.07c.41-3.37.88-6.69 1.41-9.93l.09-.55c1.15-.07 2.3-.13 3.47-.13zm-9.36 33.54c-.16 3.51-.26 7.07-.31 10.67H80.91c.33-10.75 1.88-21.32 4.52-31.19a50.19 50.19 0 0 1 20.67-11.29h6.81c-.66 4.2-1.21 8.51-1.68 12.91-3.79 5.71-6.39 12.29-8.2 18.88l6.78.02zM92.88 46.68c1.99-4.11 4.21-7.99 6.62-11.57 7.56-11.27 16.72-19.26 26.64-23.3-4.18 7.2-7.78 17.37-10.59 29.86-7.49.43-14.63 2.17-21.18 5h-1.49zM47.57 98.13c.71-14.97 5-29.61 12.46-42.47H79.5c-.01.04-.02.08-.04.11-12.51 10.28-20.97 25.32-22.61 42.36h-9.28zm25.4-13.75c-.54 4.51-.9 9.09-1.04 13.75h-2.64a49.77 49.77 0 0 1 3.68-13.75zm-4.06 19.8c0-1.2.06-2.38.14-3.55h5.32l.03-1.22c.16-7.42.86-14.67 2.06-21.71a51.07 51.07 0 0 1 5.51-7.31c-2.15 9.26-3.38 19.05-3.6 28.96l-.03 1.28h33.62l.01-1.24c.04-4.03.15-8.01.32-11.93 2.08 0 3.69.01 3.69.01.05-.16.18-.52.34-.93-.21 4.24-.34 8.52-.38 12.82l-.01 1.26h50.69l-.01-1.26c-.04-4.31-.17-8.59-.38-12.83.16.41.29.77.34.93 0 0 1.61 0 3.69-.01.18 3.92.28 7.9.32 11.93l.01 1.24h33.62l-.03-1.28c-.22-9.91-1.44-19.7-3.6-28.96a51.07 51.07 0 0 1 5.51 7.31c1.2 7.04 1.9 14.28 2.06 21.71l.03 1.22h5.32c.08 1.18.14 2.36.14 3.55 0 .14-.01.28-.01.42h-5.45l-.03 1.22c-.19 9-1.18 17.74-2.9 26.16a49.83 49.83 0 0 1-5.74 7.12c2.82-10.5 4.42-21.78 4.67-33.22l.03-1.28H170.6l-.01 1.24c-.01 1.14-.04 2.26-.06 3.39h-3.97c.02-1.12.05-2.24.06-3.36l.01-1.26h-50.69l.01 1.26c.01 1.12.04 2.24.06 3.36h-3.97c-.02-1.13-.05-2.25-.06-3.39l-.01-1.24H78.35l.03 1.28c.25 11.44 1.85 22.72 4.67 33.22a50.528 50.528 0 0 1-5.74-7.12c-1.72-8.42-2.71-17.16-2.9-26.16l-.03-1.22h-5.45c-.01-.13-.02-.27-.02-.41zm144.66 2.92a49.867 49.867 0 0 1-4.57 18.22c.9-5.94 1.46-12.02 1.64-18.22h2.93zm-28.58 42.47h-15.33c.47-3.03.89-6.12 1.27-9.25 2.34-3.41 4.34-7.05 5.93-10.9 1.3-3.14 2.13-6.8 3.05-9.99 1.16-4.03 1.67-10.21 1.67-10.21h-8.55c.01-.71.04-1.41.04-2.12h28.59c-.38 12.29-2.35 24.33-5.72 35.37a50.407 50.407 0 0 1-10.95 7.1zm-18.7-27.87c-.08.21-.17.41-.25.61l.03-.61h.22zm-10.03 16.35c-4.2 4.76-9.33 8.55-14.97 11.29-5.64-2.74-10.77-6.53-14.97-11.29-2.58-2.93-4.93-6.07-6.84-9.46-.18-2.27-.34-4.57-.47-6.89h12.24c-.27-4.05-.44-8.23-.52-12.48h-12.22c-.01-.71-.04-1.41-.05-2.12h45.64c-.01.71-.03 1.42-.05 2.12h-12.22c-.08 4.26-.25 8.43-.52 12.48h12.24c-.14 2.31-.29 4.62-.47 6.89-1.9 3.39-4.24 6.54-6.82 9.46zM116.5 121.7l.03.61c-.08-.21-.17-.41-.25-.61h.22zm-13.84-2.27c.92 3.2 1.75 6.85 3.05 9.99 1.6 3.85 3.6 7.5 5.94 10.9.38 3.13.8 6.22 1.27 9.25H97.58a50.08 50.08 0 0 1-10.95-7.11c-3.37-11.04-5.34-23.08-5.72-35.37h28.59c.01.71.03 1.41.04 2.12h-8.55c0 .01.51 6.18 1.67 10.22zm-29.08 5.89c-2.6-5.59-4.2-11.74-4.57-18.22h2.93c.17 6.2.74 12.28 1.64 18.22zm-13.56 24.25c-7.46-12.86-11.75-27.5-12.46-42.47h9.06c.77 16.7 8.08 31.69 19.44 42.47H60.02zm66.12 43.84c-9.92-4.04-19.08-12.03-26.64-23.3a92.444 92.444 0 0 1-4.99-8.37 62.352 62.352 0 0 0 21.79 4.98c2.68 11.05 6.02 20.11 9.84 26.69zm-22.23-41.34h11.94l-.24-1.45c-.33-2.05-.64-4.13-.92-6.22 1.49 1.83 3.09 3.57 4.78 5.22.08.47.14.95.22 1.41l.17 1.04h2.26c.81.71 1.64 1.4 2.48 2.07-1.81.2-3.62.3-5.44.3-5.31 0-10.44-.84-15.25-2.37zm51.6 20.12c-5.32 17.66-11.55 24.25-14.22 24.25-1.08 0-3.12-1.24-5.61-4.74-3.11-4.37-6.09-11.11-8.62-19.51-.55-1.83-1.08-3.75-1.59-5.73 1.38-.14 2.76-.31 4.13-.54.08-.01.15-.03.23-.04 3.91-.68 7.75-1.5 11.45-2.68 3.71 1.18 7.54 2.01 11.45 2.68.08.01.15.03.23.04 1.37.23 2.75.4 4.13.54-.5 1.98-1.03 3.9-1.58 5.73zm2.46-18.05c.85-.67 1.67-1.36 2.48-2.07h2.26l.17-1.04c.08-.46.14-.94.22-1.41 1.69-1.65 3.29-3.39 4.78-5.22-.29 2.1-.59 4.18-.92 6.22l-.24 1.45h11.94a50.282 50.282 0 0 1-15.26 2.37c-1.81 0-3.63-.11-5.43-.3zm25.11 15.97c-7.56 11.27-16.71 19.25-26.64 23.29 3.82-6.58 7.16-15.64 9.84-26.69 7.71-.35 15.05-2.09 21.79-4.98a89.942 89.942 0 0 1-4.99 8.38zm51.93-63.01c-.71 14.97-5 29.61-12.46 42.47h-16.04c11.35-10.78 18.67-25.77 19.44-42.47h9.06z"/><path class="st0" d="m197.59 48.43.33.76h23.58l-1.39-1.97a97.922 97.922 0 0 0-10.71-12.71c-10.17-10.17-22.1-17.76-35.46-22.56l-7.06-2.54 5.86 4.69c10.07 8.06 18.66 19.93 24.85 34.33zm10.04-12.16a95.52 95.52 0 0 1 8.08 9.19c.31.4.62.81.93 1.22h-17.08c-5.18-11.81-11.96-21.95-19.86-29.73 10.36 4.64 19.73 11.12 27.93 19.32zM84.98 48.43c6.19-14.4 14.78-26.27 24.86-34.34l5.86-4.69-7.06 2.54c-13.36 4.8-25.29 12.39-35.46 22.56a99.307 99.307 0 0 0-8.29 9.43c-.82 1.06-1.64 2.17-2.42 3.28l-1.39 1.97h23.58l.32-.75zm-19.04-1.75c.31-.41.62-.82.93-1.22a95.52 95.52 0 0 1 8.08-9.19c8.2-8.2 17.57-14.67 27.93-19.31-7.89 7.78-14.68 17.91-19.85 29.73H65.94z"/><path class="st0" d="M141.29-.19c-56.68 0-102.8 46.11-102.8 102.8 0 56.68 46.11 102.8 102.8 102.8 56.68 0 102.8-46.11 102.8-102.8S197.97-.18 141.29-.19zm0 203.1c-55.3 0-100.3-44.99-100.3-100.3 0-55.3 44.99-100.3 100.3-100.3 55.3 0 100.3 44.99 100.3 100.3s-45 100.3-100.3 100.3zM9.96 250.43v1.68c0 .27.09.49.27.68.18.19.4.28.65.28h10.43c.26 0 .47.09.65.28.18.19.27.41.27.68v5.52c0 .27-.09.49-.27.68-.18.19-.4.28-.65.28H10.88c-.26 0-.48.09-.65.28-.18.19-.27.41-.27.68v1.52c0 .27.09.49.27.68.18.19.4.28.65.28h11.97c.26 0 .47.09.65.28.18.19.27.41.27.68v5.52c0 .27-.09.49-.27.68-.18.19-.4.28-.65.28H3.26c-.26 0-.47-.09-.65-.28a.943.943 0 0 1-.27-.68v-27.34c0-.27.09-.49.27-.68.18-.19.4-.28.65-.28h19.59c.26 0 .47.09.65.28.18.19.27.41.27.68v5.44c0 .27-.09.49-.27.68-.18.19-.4.28-.65.28H10.88c-.26 0-.48.09-.65.28-.18.17-.27.39-.27.66zm47.45 14.39v5.64c0 .27-.09.49-.27.68-.18.19-.4.28-.65.28H43.21c-2.59 0-4.84-.39-6.74-1.18-1.9-.79-3.47-1.85-4.71-3.2a12.95 12.95 0 0 1-2.77-4.72c-.6-1.8-.9-3.72-.9-5.78 0-2.05.37-3.98 1.12-5.8.74-1.81 1.76-3.39 3.06-4.74 1.29-1.35 2.81-2.41 4.54-3.2s3.58-1.18 5.56-1.18 3.84.39 5.58 1.18c1.74.79 3.26 1.85 4.56 3.2 1.29 1.35 2.32 2.93 3.06 4.74a15.17 15.17 0 0 1 1.12 5.8c0 1.28-.22 2.5-.65 3.66-.44 1.16-.99 2.14-1.65 2.94-.33.48-.23.72.31.72h1.81c.26 0 .47.09.65.28.16.19.25.41.25.68zm-15.02-1.2c.92 0 1.78-.19 2.59-.58.81-.39 1.52-.9 2.13-1.54.61-.64 1.09-1.39 1.44-2.24.34-.85.52-1.76.52-2.72s-.17-1.87-.52-2.74c-.35-.87-.83-1.63-1.44-2.28a6.757 6.757 0 0 0-2.13-1.54c-.81-.37-1.67-.56-2.59-.56-.92 0-1.79.19-2.59.56-.81.37-1.52.89-2.13 1.54s-1.09 1.41-1.44 2.28c-.34.87-.52 1.78-.52 2.74s.17 1.87.52 2.72c.35.85.83 1.6 1.44 2.24s1.32 1.15 2.13 1.54c.8.39 1.66.58 2.59.58zm19.71-20.51c0-.27.09-.49.27-.68.18-.19.4-.28.65-.28h5.78c.26 0 .47.09.65.28.18.19.27.41.27.68v16.19c0 1.04.16 1.9.48 2.58.32.68.72 1.21 1.2 1.6.48.39.99.66 1.53.82.54.16 1.03.24 1.47.24.44 0 .93-.08 1.47-.24a4.22 4.22 0 0 0 1.51-.82c.46-.39.86-.92 1.18-1.6.32-.68.48-1.54.48-2.58v-16.19c0-.27.09-.49.27-.68.18-.19.4-.28.65-.28h5.78c.26 0 .47.09.65.28.18.19.27.41.27.68v16.19c0 1.89-.29 3.61-.86 5.16-.58 1.55-1.4 2.86-2.48 3.96-1.08 1.09-2.37 1.94-3.88 2.54-1.51.6-3.19.9-5.03.9-1.84 0-3.52-.3-5.03-.9-1.51-.6-2.81-1.45-3.88-2.54-1.08-1.09-1.91-2.41-2.5-3.96-.59-1.55-.88-3.26-.88-5.16v-16.19zm38.05 28.26h-5.78c-.28 0-.5-.09-.67-.28a.97.97 0 0 1-.25-.68v-27.3c0-.27.08-.49.25-.68.17-.19.39-.28.67-.28h5.78c.26 0 .47.09.65.28.18.19.27.41.27.68v27.3c0 .27-.09.49-.27.68-.17.19-.39.28-.65.28zm28.45-6.39v5.44c0 .27-.09.49-.27.68-.18.19-.4.28-.65.28h-19.21c-.28 0-.51-.09-.67-.28a.97.97 0 0 1-.25-.68v-27.34c0-.27.08-.49.25-.68.17-.19.39-.28.67-.28h5.77c.26 0 .47.09.65.28.18.19.27.41.27.68v19.99c0 .27.08.49.25.68.17.19.39.28.67.28h11.58c.26 0 .47.09.65.28.2.18.29.4.29.67zm10.43 6.39h-5.78c-.28 0-.5-.09-.67-.28a.97.97 0 0 1-.25-.68v-27.3c0-.27.08-.49.25-.68.17-.19.39-.28.67-.28h5.78c.26 0 .47.09.65.28.18.19.27.41.27.68v27.3c0 .27-.09.49-.27.68-.18.19-.4.28-.65.28zm26.69-15.07c.41.24.82.53 1.23.88.41.35.79.77 1.14 1.28.35.51.63 1.09.85 1.76.22.67.33 1.43.33 2.28 0 1.73-.26 3.16-.79 4.3-.53 1.13-1.24 2.04-2.14 2.72a8.26 8.26 0 0 1-3.1 1.44c-1.17.28-2.39.42-3.68.42h-12.2c-.26 0-.47-.09-.65-.28a.943.943 0 0 1-.27-.68v-27.34c0-.27.09-.49.27-.68.18-.19.4-.28.65-.28h11.62c1.23 0 2.41.14 3.54.42 1.13.28 2.12.74 2.98 1.38.86.64 1.55 1.47 2.08 2.5s.79 2.29.79 3.78c0 1.2-.29 2.24-.87 3.12-.58.88-1.2 1.57-1.87 2.08-.45.33-.42.64.09.9zm-10.74-3.07h3.58c.51 0 .92-.21 1.23-.62.31-.41.46-.87.46-1.38 0-.48-.19-.89-.56-1.24-.37-.35-.73-.52-1.06-.52h-3.66c-.26 0-.47.09-.65.28-.18.19-.27.41-.27.68v1.84a.941.941 0 0 0 .93.96zm4.05 6.59h-4.04c-.26 0-.47.09-.65.28-.18.19-.27.41-.27.68v2.28c0 .27.09.49.27.68.18.19.4.28.65.28h4.31c.46 0 .9-.2 1.31-.6s.62-.87.62-1.4c0-.48-.2-.97-.6-1.46-.41-.49-.94-.74-1.6-.74zm22.35 11.55h-5.76a.87.87 0 0 1-.66-.28.943.943 0 0 1-.27-.68v-27.34c0-.27.09-.49.27-.68.18-.19.4-.28.65-.28h11.97c1.49 0 2.86.26 4.12.78s2.33 1.25 3.21 2.18c.89.93 1.58 2.04 2.08 3.32.5 1.28.75 2.69.75 4.24a11.507 11.507 0 0 1-1.12 4.92c-.36.75-.78 1.42-1.27 2.02s-1.04 1.1-1.65 1.5c-.21.16-.34.35-.4.58-.06.23-.02.45.13.66.97 1.33 2 2.7 3.08 4.12 1.08 1.41 2.04 2.71 2.89 3.88.15.21.19.45.12.7-.08.25-.24.38-.5.38h-7.16c-.26 0-.53-.07-.83-.22-.3-.15-.52-.33-.67-.54-.82-1.12-1.63-2.25-2.43-3.4-.8-1.15-1.6-2.3-2.39-3.48a1.86 1.86 0 0 0-.65-.54c-.28-.15-.55-.22-.8-.22h-.84c-.26 0-.47.09-.65.28-.18.19-.27.41-.27.68v6.48c0 .27-.09.49-.27.68-.2.17-.42.26-.68.26zm1.85-15.75h4.06a2.846 2.846 0 0 0 1.88-.74c.28-.25.51-.57.69-.94.18-.37.27-.81.27-1.32 0-.27-.05-.58-.13-.94-.09-.36-.24-.71-.46-1.04-.22-.33-.51-.61-.88-.84-.37-.23-.82-.34-1.36-.34h-4.06c-.26 0-.47.09-.65.28-.18.19-.27.41-.27.68v4.24c0 .27.09.49.27.68.17.19.38.28.64.28zm27.18 15.75h-5.78c-.28 0-.5-.09-.67-.28a.97.97 0 0 1-.25-.68v-27.3c0-.27.08-.49.25-.68.17-.19.39-.28.67-.28h5.78c.26 0 .47.09.65.28.18.19.27.41.27.68v27.3c0 .27-.09.49-.27.68-.18.19-.4.28-.65.28zm7.28-28.26c0-.27.09-.49.27-.68.18-.19.4-.28.65-.28h5.78c.26 0 .47.09.65.28.18.19.27.41.27.68v16.19c0 1.04.16 1.9.48 2.58.32.68.72 1.21 1.2 1.6.48.39.99.66 1.53.82.54.16 1.03.24 1.47.24.44 0 .93-.08 1.47-.24a4.22 4.22 0 0 0 1.51-.82c.46-.39.86-.92 1.18-1.6.32-.68.48-1.54.48-2.58v-16.19c0-.27.09-.49.27-.68.18-.19.4-.28.65-.28h5.78c.26 0 .47.09.65.28.18.19.27.41.27.68v16.19c0 1.89-.29 3.61-.86 5.16-.58 1.55-1.4 2.86-2.48 3.96-1.08 1.09-2.37 1.94-3.88 2.54-1.51.6-3.19.9-5.03.9-1.84 0-3.52-.3-5.03-.9-1.51-.6-2.81-1.45-3.88-2.54-1.08-1.09-1.91-2.41-2.5-3.96-.59-1.55-.88-3.26-.88-5.16v-16.19zm62.55 0v27.3c0 .27-.09.49-.27.68-.18.19-.4.28-.65.28h-5.78c-.26 0-.47-.09-.65-.28a.943.943 0 0 1-.27-.68v-12.87c0-.27-.12-.41-.35-.44-.23-.03-.42.07-.58.28l-6.48 10.83c-.13.21-.33.32-.62.32-.28 0-.5-.11-.66-.32l-6.48-10.83c-.13-.21-.31-.31-.54-.28-.23.03-.35.17-.35.44v12.87c0 .27-.09.49-.27.68-.18.19-.4.28-.65.28h-5.78c-.26 0-.47-.09-.65-.28a.943.943 0 0 1-.27-.68v-27.3c0-.27.09-.49.27-.68.18-.19.4-.28.65-.28h5.36c.26 0 .52.08.8.24.28.16.49.35.61.56l7.41 11.27c.15.21.33.32.54.32.21 0 .37-.11.5-.32l7.41-11.27c.15-.21.37-.4.65-.56.28-.16.55-.24.8-.24h5.36c.26 0 .47.09.65.28.2.19.29.42.29.68zm-277.9-14.7v-10.96c0-.28.09-.5.28-.67.19-.16.42-.25.68-.25h275.97c.27 0 .5.08.68.25.19.17.28.39.28.67v10.96c0 .25-.09.47-.28.65a.96.96 0 0 1-.68.27H3.3c-.27 0-.49-.09-.68-.27a.88.88 0 0 1-.28-.65z"/></symbol><use xmlns:xlink="http://www.w3.org/1999/xlink" xlink:href="#svg-icon-equilibrium"/></svg>
