<svg xmlns="http://www.w3.org/2000/svg" viewBox="0 0 126.73 89.62"><symbol viewBox="0 0 126.73 89.62" id="c"><path d="M40.86 33.62c-.39-.63-.64-1.49-.64-2.32 0-.82.21-1.58.58-2.25l.04-.08c.37-.75 1.21-1.27 2.03-1.27.53 0 1.1.16 1.55.39.8.5 1.44 1.25 1.79 2.15v-1.36c0-.31-.46-.64-.46-.64-.78-.58-1.75-.92-2.8-.92-.42 0-1.02.11-1.02.11-1.76.38-3.08 1.97-3.08 3.86 0 2.02 1.51 3.69 3.45 3.91 0 0 .4.06.67.04 1.14 0 2.18-.4 2.99-1.08l.11-.12c.1-.13.16-.29.16-.47v-1.13c0-.34.16-.63.41-.81h-2.09c.25.18.41.48.41.81l.01 1.06c0 .21-.08.4-.22.54-.17.19-.82.53-.82.53-.32.17-.68.27-1.06.27-.87.01-1.63-.49-2.01-1.22zm21.25-2.34c0 1.89 1.32 3.45 3.08 3.82 0 0 .6.11 1.02.11 1.05 0 2-.33 2.78-.92 0 0 .48-.3.48-.6l.19-1.44c-.54 1.36-1.45 1.87-1.98 2.18-.44.23-1.01.4-1.55.4-.82 0-1.65-.47-2.02-1.23l-.05-.08c-.37-.66-.58-1.43-.58-2.25 0-.82.21-1.58.58-2.25l.04-.08c.37-.76 1.21-1.27 2.03-1.27.53 0 1.1.16 1.55.39.8.5 1.44 1.25 1.79 2.15v-1.36c0-.3-.46-.64-.46-.64-.78-.58-1.75-.92-2.8-.92-.43 0-1.02.11-1.02.11-1.77.39-3.08 1.99-3.08 3.88m12.13.01c0 1.89 1.32 3.45 3.08 3.82 0 0 .6.11 1.02.11 1.05 0 2-.33 2.78-.92 0 0 .48-.3.48-.6l.19-1.44c-.54 1.36-1.45 1.87-1.98 2.18-.44.23-1.01.4-1.55.4-.82 0-1.65-.47-2.02-1.23l-.05-.08c-.37-.66-.58-1.43-.58-2.25 0-.82.21-1.58.58-2.24l.04-.08c.37-.76 1.21-1.27 2.03-1.27.53 0 1.1.16 1.55.39.8.5 1.44 1.25 1.79 2.15v-1.36c0-.3-.46-.64-.46-.64-.78-.58-1.75-.92-2.8-.92-.43 0-1.02.11-1.02.11-1.76.38-3.08 1.98-3.08 3.87m13.65-3.64h-2.03c.25.18.41.47.41.8v5.98c0 .32-.15.61-.39.78h1.98a.966.966 0 0 1-.39-.78v-5.98c0-.33.17-.62.42-.8m-35.06 0H50.8c.25.18.41.47.41.8v4.48c.07.82.58 1.51 1.28 1.83h.01c.58.28 1.22.45 1.9.45.7 0 1.35-.15 1.93-.44l.01-.01a2.2 2.2 0 0 0 1.27-1.84v-4.49c0-.33.16-.61.41-.79h-1.18c.25.18.41.45.41.79v4.5c-.05.49-.29.93-.65 1.23v.04c-.4.31-1.1.55-1.77.55-.41 0-.81-.09-1.17-.23l-.04-.01c-.65-.23-1.13-.85-1.21-1.57v-4.48c0-.33.17-.63.42-.81M32.14 42.44c-.34-.73-.79-1.36-1.36-1.88a6.04 6.04 0 0 0-1.98-1.2 6.72 6.72 0 0 0-2.37-.42c-.83 0-1.62.14-2.37.42-.75.28-1.41.68-1.98 1.2-.57.52-1.02 1.15-1.36 1.88-.34.73-.51 1.54-.51 2.44 0 .9.17 1.71.51 2.44.34.73.79 1.36 1.36 1.87.57.52 1.23.92 1.98 1.2.75.28 1.54.43 2.37.43.83 0 1.62-.14 2.37-.43a6.04 6.04 0 0 0 1.98-1.2c.57-.52 1.02-1.14 1.36-1.87.34-.73.51-1.54.51-2.44 0-.89-.17-1.71-.51-2.44m-1.75 4.64c-.23.65-.55 1.19-.94 1.64-.4.45-.86.79-1.38 1.04-.52.24-1.07.36-1.65.36-.58 0-1.13-.12-1.65-.37-.52-.24-.98-.59-1.38-1.04-.4-.45-.71-.99-.94-1.64-.23-.65-.35-1.38-.35-2.19 0-.82.12-1.55.35-2.2.23-.65.55-1.2.94-1.65.4-.45.86-.79 1.38-1.04a3.9 3.9 0 0 1 1.65-.37c.58 0 1.13.12 1.65.37.52.24.98.59 1.38 1.04.4.45.71 1 .94 1.65.23.65.35 1.39.35 2.2 0 .82-.12 1.55-.35 2.2m14.16-1.31c-.29-.44-.66-.81-1.11-1.11-.44-.31-.92-.56-1.44-.77-.52-.21-1-.42-1.45-.64-.44-.22-.81-.47-1.11-.76-.29-.29-.44-.66-.44-1.11 0-.48.18-.88.54-1.22.36-.34.87-.51 1.53-.51.29 0 .6.04.9.11.31.07.6.19.88.36.28.16.54.38.77.65.24.27.44.6.61 1l.09-.07-.17-1.84c-.31-.29-.72-.52-1.24-.67-.52-.15-1.11-.23-1.75-.23-.5 0-.97.07-1.41.2-.44.13-.83.32-1.16.58-.33.25-.59.58-.78.97-.19.39-.29.85-.29 1.37 0 .58.15 1.05.44 1.43.29.37.66.7 1.1.97.44.27.91.51 1.42.72.51.21.98.44 1.42.68.44.24.8.52 1.1.84.29.32.44.72.44 1.21 0 .74-.23 1.3-.69 1.68-.46.39-1.05.58-1.78.58-.31 0-.63-.05-.96-.14-.33-.1-.66-.25-.97-.45-.31-.2-.61-.47-.9-.8-.29-.33-.55-.73-.77-1.21l-.14.05.29 2.11c.18.17.41.32.67.46.27.14.55.25.86.34.31.09.62.16.94.21.32.05.64.08.94.08.54 0 1.06-.07 1.55-.21.49-.14.92-.35 1.29-.64.37-.28.67-.63.88-1.05.22-.41.32-.89.32-1.44.02-.72-.12-1.29-.42-1.73m14.31-4.83c-.02-.07-.06-.18-.12-.34-.06-.16-.11-.33-.17-.51-.06-.18-.11-.35-.16-.5s-.08-.25-.08-.28h-8.96c0 .03-.03.13-.08.28-.05.15-.11.32-.17.5-.06.18-.12.35-.18.52-.06.16-.1.28-.12.35l.09.09c.58-.43 1.23-.73 1.96-.91.73-.18 1.43-.26 2.11-.26v8.03c0 .37 0 .7-.01.99-.01.3-.01.58-.03.85-.01.25-.07.42-.18.51-.11.09-.22.16-.35.22l.02.07a5.383 5.383 0 0 1 .7-.05c.15-.01.29-.01.42-.01h.61c.13 0 .27 0 .42.01.15.01.29.01.42.02s.22.02.28.03l.02-.07c-.11-.06-.23-.13-.34-.22-.11-.09-.18-.26-.19-.51l-.03-.85c-.01-.29-.01-.63-.01-.99v-8.03c.68 0 1.38.08 2.1.26.72.17 1.37.47 1.95.9l.08-.1zm12.24 7.87c-.34.25-.73.45-1.18.6-.45.15-.93.27-1.45.35-.52.08-1.05.13-1.62.15s-1.13.03-1.71.02l-.03-.87c-.01-.31-.01-.65-.01-1.04v-3.04c.84 0 1.51.01 2.01.03.51.02.89.07 1.17.13.27.06.46.15.56.27.1.12.18.27.22.45l.08-.03c-.02-.19-.04-.37-.05-.54a8.978 8.978 0 0 1 0-1.17c.01-.16.03-.34.05-.54l-.08-.03c-.05.17-.12.31-.22.43-.1.11-.29.2-.56.27-.27.07-.66.12-1.17.14-.5.03-1.18.05-2.01.06V41.9c0-.33 0-.66.01-.98.01-.32.01-.69.03-1.11.52-.03 1.02-.05 1.5-.03.48.01.93.06 1.37.14.44.09.85.22 1.24.39.39.18.76.42 1.1.72l.09-.1c-.03-.08-.08-.2-.14-.35-.06-.15-.12-.31-.18-.48-.06-.17-.12-.33-.16-.48-.05-.15-.07-.25-.07-.32h-5.68c-.07 0-.17 0-.3-.01-.13-.01-.27-.01-.41-.02-.14-.01-.28-.01-.41-.03-.13-.01-.22-.02-.28-.03l-.01.09c.11.06.23.13.34.22.11.09.18.26.19.51l.03.84c.01.29.01.62.01 1v6c0 .37 0 .71-.01 1-.01.3-.01.58-.03.85-.01.25-.07.42-.19.51-.11.09-.23.16-.34.22l.02.07a5.362 5.362 0 0 1 .69-.05c.14-.01.28-.01.41-.01h6.56c0-.05.03-.14.1-.3.07-.15.14-.32.23-.49.08-.18.16-.34.24-.49.07-.15.12-.25.14-.3l-.09-.07zm12.66 1.43c-.24.08-.47.03-.71-.16-.23-.19-.47-.44-.71-.77s-.48-.71-.72-1.13c-.24-.42-.5-.84-.77-1.23-.27-.4-.55-.76-.84-1.08-.29-.32-.61-.55-.95-.67.46-.08.9-.2 1.31-.37.41-.16.77-.37 1.07-.63.31-.25.55-.56.73-.91.18-.35.27-.76.27-1.22 0-.39-.09-.75-.25-1.09-.17-.34-.44-.64-.8-.89-.36-.26-.82-.46-1.38-.6-.56-.15-1.23-.22-2.01-.22h-.52c-.28 0-.58 0-.9.01-.32.01-.62.01-.89.02s-.44.01-.51.03l.02.07c.12.01.24.06.34.15.1.09.16.26.17.51l.03.84c.01.29.01.62.01 1v6.02c0 .37 0 .7-.01.99-.01.3-.01.58-.03.85-.01.25-.07.42-.19.51-.11.09-.23.16-.34.22l.02.07c.06-.01.15-.02.29-.03.14-.01.28-.02.42-.02.15-.01.29-.01.43-.01h.61c.13 0 .27 0 .41.01.14.01.28.01.41.02.13.01.22.02.28.03l.02-.07a1.86 1.86 0 0 1-.35-.22c-.11-.09-.17-.26-.18-.51-.01-.25-.02-.48-.02-.71-.01-.22-.01-.47-.01-.74v-3.02h.46c.29.06.54.23.73.52.19.29.37.63.53 1.03.16.4.32.82.48 1.26.16.44.35.85.59 1.22.23.37.52.69.88.94.35.25.8.37 1.34.37.19 0 .41-.02.66-.05.25-.03.45-.11.61-.22l-.03-.12zm-3.41-6.88c-.19.35-.43.62-.73.82-.3.2-.64.33-1.01.4s-.74.09-1.11.05v-2.87c0-.79.01-1.44.03-1.95.37 0 .75.03 1.11.09.37.06.7.17 1 .33.29.16.53.39.71.68.18.29.27.67.27 1.15.01.52-.08.96-.27 1.3m10.42 7.1a1.86 1.86 0 0 1-.35-.22c-.11-.09-.17-.26-.18-.51l-.03-.85c-.01-.29-.01-.63-.01-1v-6c0-.37 0-.71.01-1 .01-.29.01-.57.03-.84.01-.25.07-.42.18-.52.11-.1.22-.17.35-.23l-.02-.07c-.06.01-.15.02-.28.03l-.42.03c-.15.01-.29.01-.42.02s-.23.01-.3.01h-.31c-.14 0-.28-.01-.42-.02l-.41-.03a1.68 1.68 0 0 1-.3-.04l-.02.07c.11.06.23.13.34.23.11.1.18.27.19.52l.03.84c.01.29.01.62.01 1v6c0 .37 0 .71-.01 1-.01.3-.01.58-.03.85-.01.25-.07.42-.19.51-.11.09-.23.16-.34.22l.02.07c.07-.01.17-.02.3-.03.13-.01.27-.02.41-.02.14-.01.28-.01.42-.01h.31c.07 0 .17 0 .3.01.13.01.27.01.42.02.15.01.29.01.42.02s.22.01.28.02l.02-.08zm15.77 0c-.16-.06-.33-.18-.53-.36-.19-.18-.35-.4-.48-.65-.14-.27-.27-.54-.4-.79s-.27-.54-.43-.87c-.15-.32-.34-.7-.55-1.14-.22-.44-.48-.98-.78-1.62-.31-.65-.6-1.27-.88-1.86-.28-.6-.53-1.15-.77-1.66-.23-.51-.44-.97-.62-1.38-.18-.41-.33-.75-.44-1.02h-.24c-.11.27-.26.61-.44 1.02-.18.41-.39.87-.62 1.38-.23.51-.49 1.06-.77 1.66-.28.6-.58 1.22-.88 1.86-.31.65-.57 1.2-.78 1.65-.22.45-.41.85-.58 1.19-.17.34-.32.64-.46.91s-.27.54-.41.81c-.25.47-.56.75-.92.87l.02.07c.16-.02.34-.04.54-.05.2-.01.38-.02.54-.02.17 0 .37.01.6.02.23.01.41.03.56.05l.02-.07c-.06-.02-.12-.05-.2-.09a.483.483 0 0 1-.2-.14.415.415 0 0 1-.12-.2c-.02-.08-.01-.18.05-.31.08-.19.16-.38.23-.57.07-.19.15-.39.24-.6.08-.22.18-.44.27-.69.1-.24.21-.52.33-.82h5.02c.29.61.54 1.12.72 1.51.19.4.36.79.52 1.17.05.12.06.23.04.31a.36.36 0 0 1-.11.2c-.06.06-.12.1-.2.14-.07.03-.14.06-.2.09l.02.07c.07-.01.18-.02.35-.03.16-.01.34-.02.52-.02.18-.01.35-.01.52-.01h.7c.14 0 .28 0 .43.01.15.01.3.01.43.02.14.01.24.02.32.03l.02-.07zm-8.88-3.99.63-1.39c.25-.53.45-.97.6-1.31.15-.34.28-.63.38-.88.11-.25.21-.48.3-.69.09-.21.2-.46.34-.74.14.28.24.51.31.68.07.17.16.37.26.59.1.22.22.5.37.85s.38.84.67 1.47l.65 1.43h-4.51zM46.08 60.38c-.37 0-1.06.96-1.06 1.43 0 .14.06.23.22.23.4 0 1-1.08 1-1.46 0-.13-.06-.2-.16-.2m.15 1.28c-.1.3-.07.34 0 .34.1 0 .47-.36.52-.36.01 0 .02.01.01.03-.05.08-.55.63-.77.63-.18 0-.18-.19-.03-.6l.12-.32c0-.01-.04-.04-.05-.02-.31.61-.64.94-.99.94-.21 0-.37-.17-.37-.42 0-.59.78-1.6 1.4-1.6.14 0 .23.08.26.2.17-.4.31-.77.51-1.37.07-.21-.02-.32-.35-.32-.04 0-.04-.05-.01-.05.25-.03.76-.06.81-.06.04 0 .05.03.03.08-.48 1.22-.88 2.28-1.09 2.9m2.17-1.32c-.39 0-.99 1.02-.99 1.44 0 .16.07.25.17.25s.22-.07.35-.22c.32-.38.65-1.14.65-1.29 0-.1-.06-.18-.18-.18m.08 1.33c-.09.25-.07.32.01.32.13 0 .38-.34.42-.34.01 0 .02.01.01.02-.16.29-.49.61-.68.61-.08 0-.14-.04-.14-.14 0-.08.02-.2.07-.35l.09-.3c0-.01-.04-.03-.05-.02-.29.5-.59.81-.84.81-.17 0-.33-.14-.33-.37 0-.67.78-1.64 1.32-1.64.09 0 .2.03.24.06.02.01.03.02.05 0 .06-.08.12-.16.15-.22.04-.05.23.01.22.04l-.54 1.52zm5.99-2.63c-.15.1-.19.2-.36 1.54-.17 1.41-.17 1.53-.14 1.55.06.04.19.03.3.06.04.01.03.07 0 .06-.13-.01-.33-.02-.58-.02-.25 0-.47 0-.6.02-.02 0-.05-.05 0-.06.12-.03.25-.03.32-.06.11-.06.16-.17.33-1.57.05-.42.12-.8.15-1.09 0-.02-.04-.02-.04-.01-.4.62-1.16 1.82-1.76 2.83-.02.03-.09.02-.09 0a59.72 59.72 0 0 0-.26-2.8c0-.01-.03-.02-.04 0-.13.29-.27.65-.45 1.09-.56 1.41-.57 1.52-.54 1.55.04.04.16.03.26.06.04.01.02.07-.01.06-.12-.01-.24-.02-.49-.02s-.37 0-.51.02c-.02 0-.04-.05 0-.06.13-.03.27-.03.35-.06.15-.07.2-.15.78-1.55.55-1.33.53-1.44.45-1.53-.05-.05-.19-.07-.36-.09-.04 0-.02-.06 0-.06.09.01.39.02.58.02.17 0 .18-.01.27-.02.01 0 .03.01.03.02.03.51.13 1.8.22 2.74 0 .01.03.01.04 0 .53-.82 1.26-1.99 1.68-2.73.01-.01.02-.02.04-.02.09.01.16.02.32.02.18 0 .36-.01.45-.02.02 0 .05.06.01.06-.18.01-.31.04-.35.07m1.65 1.3c-.39 0-.99 1.02-.99 1.44 0 .16.07.25.17.25s.22-.07.35-.22c.32-.38.65-1.14.65-1.29.01-.1-.05-.18-.18-.18m.09 1.33c-.09.25-.07.32.01.32.13 0 .38-.34.42-.34.01 0 .02.01.01.02-.16.29-.49.61-.68.61-.08 0-.14-.04-.14-.14 0-.08.02-.2.07-.35l.09-.3c0-.01-.04-.03-.05-.02-.29.5-.59.81-.84.81-.17 0-.33-.14-.33-.37 0-.67.78-1.64 1.32-1.64.09 0 .2.03.24.06.02.01.03.02.05 0 .06-.08.12-.16.15-.22.04-.05.23.01.22.04l-.54 1.52zm2.03-1c-.2 0-.18-.32-.41-.32-.13 0-.25.15-.25.27 0 .26.46.78.46 1.11 0 .29-.27.57-.66.57-.29 0-.49-.21-.49-.34 0-.09.06-.17.17-.17.24 0 .15.41.48.41.14 0 .24-.18.24-.32 0-.27-.43-.67-.43-1.05 0-.3.3-.61.66-.61.2 0 .39.15.39.29 0 .08-.07.16-.16.16m1.51 0c-.2 0-.18-.32-.41-.32-.13 0-.25.15-.25.27 0 .26.46.78.46 1.11 0 .29-.27.57-.66.57-.29 0-.49-.21-.49-.34 0-.09.06-.17.17-.17.24 0 .15.41.48.41.14 0 .24-.18.24-.32 0-.27-.43-.67-.43-1.05 0-.3.3-.61.66-.61.2 0 .39.15.39.29 0 .08-.07.16-.16.16m1.37-1.02c-.1 0-.15-.08-.15-.16 0-.12.11-.29.25-.29.1 0 .15.08.15.16.01.12-.11.29-.25.29m-.78 2.64c-.19 0-.23-.19-.12-.43l.49-1.07c.1-.22.1-.32-.01-.32s-.33.21-.48.41c-.01.02-.04 0-.03-.01.09-.27.49-.65.74-.65s.25.29.04.75l-.38.76c-.1.22-.07.26.03.26s.46-.33.51-.33c.01 0 .02.01.01.02-.04.08-.53.61-.8.61m3.38 0c-.17 0-.23-.12-.12-.43l.37-.95c.15-.37.12-.44.06-.44-.22 0-.62.63-1.23 1.75-.01.03-.1.04-.17.04-.08 0-.14-.01-.13-.04l.54-1.45c.07-.18.12-.31.03-.31-.23 0-.62.65-1.23 1.77-.01.03-.09.04-.16.04-.08 0-.15-.01-.14-.04l.53-1.43c.07-.21.09-.32.01-.32-.15 0-.31.14-.5.4-.01.02-.04 0-.03-.01.09-.27.48-.64.74-.64.08 0 .15.09.15.2 0 .22-.15.66-.46 1.36-.01.01.05.02.05.02.59-1.13.93-1.61 1.22-1.61.09 0 .16.09.16.23 0 .24-.15.65-.47 1.36-.01.01.05.02.05.02.58-1.12.97-1.57 1.23-1.57.3 0 .22.35.07.74l-.3.76c-.08.22-.05.26.02.26.1 0 .46-.33.51-.33.01 0 .02.01.01.02-.06.07-.55.6-.81.6m2.23-2c-.34 0-.78 1.08-.78 1.59 0 .22.09.34.26.34.34 0 .79-1.08.79-1.59-.01-.22-.1-.34-.27-.34m-.55 2c-.3 0-.52-.21-.52-.65 0-.55.44-1.43 1.1-1.43.3 0 .52.21.52.66-.01.55-.45 1.42-1.1 1.42m4.34-3.27c-.14 0-.22.03-.3.06-.04.02-.09.08-.42 1.26-.01.03-.01.06.01.07.06.01.08.01.35.01.64 0 .91-.52.91-.92.01-.27-.15-.48-.55-.48m-.38 1.5c-.27 0-.29 0-.36.01-.03.01-.05.03-.06.07-.33 1.15-.37 1.38-.32 1.45.06.07.15.09.49.09.58 0 1.02-.45 1.02-.97.01-.36-.31-.65-.77-.65m.39-.08c-.02 0-.03.04-.01.04.59.09.81.43.81.75 0 .5-.58 1.02-1.51 1.02-.12 0-.29-.02-.54-.02-.25 0-.63 0-.76.02-.02 0-.04-.05 0-.06.12-.03.27-.03.34-.06.04-.02.1-.15.51-1.55.4-1.41.42-1.53.38-1.56-.05-.03-.18-.03-.29-.06-.03-.01-.02-.06 0-.06.13.01.48.02.74.02.25 0 .32-.02.45-.02.5 0 .83.29.83.65 0 .39-.35.76-.95.89m2.36-.15c-.34 0-.78 1.08-.78 1.59 0 .22.09.34.26.34.34 0 .79-1.08.79-1.59 0-.22-.1-.34-.27-.34m-.55 2c-.3 0-.52-.21-.52-.65 0-.55.44-1.43 1.1-1.43.3 0 .52.21.52.66 0 .55-.44 1.42-1.1 1.42m2.79-1.83c-.16-.01-.17-.02-.46-.02-.16.43-.37.97-.49 1.31-.07.2-.02.27.04.27.17 0 .52-.45.57-.45.01 0 .02.01.01.02-.15.23-.5.71-.81.71-.11 0-.3-.1-.17-.43.17-.44.37-.99.52-1.42-.18 0-.23.01-.37.02-.05 0-.05-.14.01-.14.14.01.22.01.4.01.06-.16.11-.3.14-.41.01-.02.04-.02.07-.02.08 0 .29.03.27.08-.04.1-.09.22-.15.36.28 0 .27 0 .43-.01.05-.02.06.12-.01.12m1.56 0c-.16-.01-.17-.02-.46-.02-.16.43-.37.97-.49 1.31-.07.2-.02.27.04.27.17 0 .53-.45.57-.45.01 0 .02.01.01.02-.15.23-.5.71-.81.71-.11 0-.3-.1-.17-.43.17-.44.37-.99.52-1.42-.18 0-.23.01-.37.02-.05 0-.05-.14.01-.14.14.01.22.01.4.01.06-.16.11-.3.14-.41.01-.02.04-.02.07-.02.08 0 .29.03.27.08-.04.1-.09.22-.15.36.28 0 .27 0 .43-.01.05-.02.05.12-.01.12m1.63 1.24c-.09.25-.05.28.02.28.1 0 .44-.33.48-.33.01 0 .02.01.01.02-.05.08-.5.61-.77.61-.21 0-.21-.24.26-1.27 0-.01-.04-.04-.05-.02-.37.62-.75 1.29-1.16 1.29-.13 0-.24-.06-.24-.23 0-.11.04-.26.15-.51l.35-.76c.1-.22.11-.32.01-.32-.15 0-.34.21-.4.25-.01.01-.03-.02-.02-.03.17-.2.4-.48.65-.48.18 0 .24.21.09.56l-.36.83c-.14.33-.13.44-.01.44.23 0 .75-.66 1.23-1.79.01-.01.04-.02.08-.02.09 0 .23.03.22.07l-.54 1.41zm2.44-.99c-.2 0-.11-.25-.23-.25-.13 0-.36.28-.99 1.76-.01.03-.1.04-.17.04-.08 0-.15 0-.14-.04.29-.79.49-1.4.49-1.57 0-.1-.02-.14-.07-.14-.15 0-.33.35-.37.37-.01 0-.04 0-.03-.01.12-.26.37-.67.61-.67.13 0 .17.15.17.3 0 .18-.07.45-.25.97-.01.02.05.03.05.02.37-.89.63-1.29.91-1.29.16 0 .25.12.25.26-.02.13-.11.25-.23.25m1.45-.37c-.39 0-.99 1.02-.99 1.44 0 .16.07.25.17.25s.22-.07.35-.22c.32-.38.65-1.14.65-1.29.01-.1-.05-.18-.18-.18m.09 1.33c-.09.25-.07.32.01.32.13 0 .38-.34.42-.34.01 0 .02.01.01.02-.16.29-.49.61-.68.61-.08 0-.14-.04-.14-.14 0-.08.02-.2.07-.35l.09-.3c0-.01-.04-.03-.05-.02-.3.5-.59.81-.84.81-.17 0-.33-.14-.33-.37 0-.67.78-1.64 1.32-1.64.09 0 .2.03.24.06.02.01.03.02.05 0 .06-.08.12-.16.15-.22.04-.05.23.01.22.04l-.54 1.52z" style="fill:currentColor"/></symbol><use xmlns:xlink="http://www.w3.org/1999/xlink" xlink:href="#c"/></svg>