<svg xmlns="http://www.w3.org/2000/svg" viewBox="0 0 126.73 89.62"><symbol viewBox="0 0 126.73 89.62" id="svg-icon-gucci-osteria"><title>gucci-osteria</title> <style type="text/css"> .st0{fill:#7F7D7A;} </style> <g id="gucci-osteria-Livello_1"> <g> <path class="st0" d="M40.86,33.62c-0.39-0.63-0.64-1.49-0.64-2.32c0-0.82,0.21-1.58,0.58-2.25l0.04-0.08c0.37-0.75,1.21-1.27,2.03-1.27v0&#10;&#9;&#9;&#9;c0.53,0,1.1,0.16,1.55,0.39c0.8,0.5,1.44,1.25,1.79,2.15v-1.36c0-0.31-0.46-0.64-0.46-0.64c-0.78-0.58-1.75-0.92-2.8-0.92&#10;&#9;&#9;&#9;c-0.42,0-1.02,0.11-1.02,0.11c-1.76,0.38-3.08,1.97-3.08,3.86c0,2.02,1.51,3.69,3.45,3.91c0,0,0.4,0.06,0.67,0.04&#10;&#9;&#9;&#9;c1.14,0,2.18-0.4,2.99-1.08l0.11-0.12c0.1-0.13,0.16-0.29,0.16-0.47v-1.13c0-0.34,0.16-0.63,0.41-0.81h-2.09&#10;&#9;&#9;&#9;c0.25,0.18,0.41,0.48,0.41,0.81l0.01,1.06c0,0.21-0.08,0.4-0.22,0.54c-0.17,0.19-0.82,0.53-0.82,0.53&#10;&#9;&#9;&#9;c-0.32,0.17-0.68,0.27-1.06,0.27C42,34.85,41.24,34.35,40.86,33.62L40.86,33.62z"/> <path class="st0" d="M62.11,31.28c0,1.89,1.32,3.45,3.08,3.82c0,0,0.6,0.11,1.02,0.11c1.05,0,2-0.33,2.78-0.92c0,0,0.48-0.3,0.48-0.6&#10;&#9;&#9;&#9;l0.19-1.44c-0.54,1.36-1.45,1.87-1.98,2.18c-0.44,0.23-1.01,0.4-1.55,0.4v0c-0.82,0-1.65-0.47-2.02-1.23l-0.05-0.08&#10;&#9;&#9;&#9;c-0.37-0.66-0.58-1.43-0.58-2.25c0-0.82,0.21-1.58,0.58-2.25l0.04-0.08c0.37-0.76,1.21-1.27,2.03-1.27v0&#10;&#9;&#9;&#9;c0.53,0,1.1,0.16,1.55,0.39c0.8,0.5,1.44,1.25,1.79,2.15v-1.36c0-0.3-0.46-0.64-0.46-0.64c-0.78-0.58-1.75-0.92-2.8-0.92&#10;&#9;&#9;&#9;c-0.43,0-1.02,0.11-1.02,0.11C63.42,27.79,62.11,29.39,62.11,31.28"/> <path class="st0" d="M74.24,31.29c0,1.89,1.32,3.45,3.08,3.82c0,0,0.6,0.11,1.02,0.11c1.05,0,2-0.33,2.78-0.92c0,0,0.48-0.3,0.48-0.6&#10;&#9;&#9;&#9;l0.19-1.44c-0.54,1.36-1.45,1.87-1.98,2.18c-0.44,0.23-1.01,0.4-1.55,0.4v0c-0.82,0-1.65-0.47-2.02-1.23l-0.05-0.08&#10;&#9;&#9;&#9;c-0.37-0.66-0.58-1.43-0.58-2.25c0-0.82,0.21-1.58,0.58-2.24l0.04-0.08c0.37-0.76,1.21-1.27,2.03-1.27v0&#10;&#9;&#9;&#9;c0.53,0,1.1,0.16,1.55,0.39c0.8,0.5,1.44,1.25,1.79,2.15v-1.36c0-0.3-0.46-0.64-0.46-0.64c-0.78-0.58-1.75-0.92-2.8-0.92&#10;&#9;&#9;&#9;c-0.43,0-1.02,0.11-1.02,0.11C75.56,27.8,74.24,29.4,74.24,31.29"/> <path class="st0" d="M87.89,27.65h-2.03c0.25,0.18,0.41,0.47,0.41,0.8v5.98c0,0.32-0.15,0.61-0.39,0.78h1.98c-0.24-0.18-0.39-0.46-0.39-0.78&#10;&#9;&#9;&#9;v-5.98C87.47,28.12,87.64,27.83,87.89,27.65"/> <path class="st0" d="M52.83,27.65H50.8c0.25,0.18,0.41,0.47,0.41,0.8l0,0v4.47v0.01c0.07,0.82,0.58,1.51,1.28,1.83l0.01,0&#10;&#9;&#9;&#9;c0.58,0.28,1.22,0.45,1.9,0.45c0.7,0,1.35-0.15,1.93-0.44l0.01-0.01c0.71-0.33,1.21-1.02,1.27-1.84l0,0v-4.49&#10;&#9;&#9;&#9;c0-0.33,0.16-0.61,0.41-0.79h-1.18c0.25,0.18,0.41,0.45,0.41,0.79v4.49l0,0.01c-0.05,0.49-0.29,0.93-0.65,1.23L56.6,34.2&#10;&#9;&#9;&#9;c-0.4,0.31-1.1,0.55-1.77,0.55c-0.41,0-0.81-0.09-1.17-0.23l-0.04-0.01c-0.65-0.23-1.13-0.85-1.21-1.57l0-0.01v-4.47l0,0&#10;&#9;&#9;&#9;C52.41,28.13,52.58,27.83,52.83,27.65"/> <path class="st0" d="M32.14,42.44c-0.34-0.73-0.79-1.36-1.36-1.88c-0.57-0.52-1.23-0.92-1.98-1.2c-0.75-0.28-1.54-0.42-2.37-0.42&#10;&#9;&#9;&#9;c-0.83,0-1.62,0.14-2.37,0.42c-0.75,0.28-1.41,0.68-1.98,1.2c-0.57,0.52-1.02,1.15-1.36,1.88c-0.34,0.73-0.51,1.54-0.51,2.44&#10;&#9;&#9;&#9;c0,0.9,0.17,1.71,0.51,2.44c0.34,0.73,0.79,1.36,1.36,1.87c0.57,0.52,1.23,0.92,1.98,1.2c0.75,0.28,1.54,0.43,2.37,0.43&#10;&#9;&#9;&#9;c0.83,0,1.62-0.14,2.37-0.43c0.75-0.28,1.41-0.68,1.98-1.2c0.57-0.52,1.02-1.14,1.36-1.87c0.34-0.73,0.51-1.54,0.51-2.44&#10;&#9;&#9;&#9;C32.65,43.99,32.48,43.17,32.14,42.44 M30.39,47.08c-0.23,0.65-0.55,1.19-0.94,1.64c-0.4,0.45-0.86,0.79-1.38,1.04&#10;&#9;&#9;&#9;C27.55,50,27,50.12,26.42,50.12c-0.58,0-1.13-0.12-1.65-0.37c-0.52-0.24-0.98-0.59-1.38-1.04c-0.4-0.45-0.71-0.99-0.94-1.64&#10;&#9;&#9;&#9;c-0.23-0.65-0.35-1.38-0.35-2.19c0-0.82,0.12-1.55,0.35-2.2c0.23-0.65,0.55-1.2,0.94-1.65c0.4-0.45,0.86-0.79,1.38-1.04&#10;&#9;&#9;&#9;c0.52-0.24,1.07-0.37,1.65-0.37c0.58,0,1.13,0.12,1.65,0.37c0.52,0.24,0.98,0.59,1.38,1.04c0.4,0.45,0.71,1,0.94,1.65&#10;&#9;&#9;&#9;c0.23,0.65,0.35,1.39,0.35,2.2C30.74,45.7,30.62,46.43,30.39,47.08 M44.55,45.77c-0.29-0.44-0.66-0.81-1.11-1.11&#10;&#9;&#9;&#9;C43,44.35,42.52,44.1,42,43.89c-0.52-0.21-1-0.42-1.45-0.64c-0.44-0.22-0.81-0.47-1.11-0.76c-0.29-0.29-0.44-0.66-0.44-1.11&#10;&#9;&#9;&#9;c0-0.48,0.18-0.88,0.54-1.22c0.36-0.34,0.87-0.51,1.53-0.51c0.29,0,0.6,0.04,0.9,0.11c0.31,0.07,0.6,0.19,0.88,0.36&#10;&#9;&#9;&#9;c0.28,0.16,0.54,0.38,0.77,0.65c0.24,0.27,0.44,0.6,0.61,1l0.09-0.07l-0.17-1.84c-0.31-0.29-0.72-0.52-1.24-0.67&#10;&#9;&#9;&#9;c-0.52-0.15-1.11-0.23-1.75-0.23c-0.5,0-0.97,0.07-1.41,0.2c-0.44,0.13-0.83,0.32-1.16,0.58c-0.33,0.25-0.59,0.58-0.78,0.97&#10;&#9;&#9;&#9;c-0.19,0.39-0.29,0.85-0.29,1.37c0,0.58,0.15,1.05,0.44,1.43c0.29,0.37,0.66,0.7,1.1,0.97c0.44,0.27,0.91,0.51,1.42,0.72&#10;&#9;&#9;&#9;c0.51,0.21,0.98,0.44,1.42,0.68c0.44,0.24,0.8,0.52,1.1,0.84c0.29,0.32,0.44,0.72,0.44,1.21c0,0.74-0.23,1.3-0.69,1.68&#10;&#9;&#9;&#9;c-0.46,0.39-1.05,0.58-1.78,0.58c-0.31,0-0.63-0.05-0.96-0.14c-0.33-0.1-0.66-0.25-0.97-0.45c-0.31-0.2-0.61-0.47-0.9-0.8&#10;&#9;&#9;&#9;c-0.29-0.33-0.55-0.73-0.77-1.21l-0.14,0.05l0.29,2.11c0.18,0.17,0.41,0.32,0.67,0.46c0.27,0.14,0.55,0.25,0.86,0.34&#10;&#9;&#9;&#9;c0.31,0.09,0.62,0.16,0.94,0.21c0.32,0.05,0.64,0.08,0.94,0.08c0.54,0,1.06-0.07,1.55-0.21c0.49-0.14,0.92-0.35,1.29-0.64&#10;&#9;&#9;&#9;c0.37-0.28,0.67-0.63,0.88-1.05c0.22-0.41,0.32-0.89,0.32-1.44C44.99,46.78,44.85,46.21,44.55,45.77 M58.86,40.94&#10;&#9;&#9;&#9;c-0.02-0.07-0.06-0.18-0.12-0.34c-0.06-0.16-0.11-0.33-0.17-0.51c-0.06-0.18-0.11-0.35-0.16-0.5s-0.08-0.25-0.08-0.28h-8.96&#10;&#9;&#9;&#9;c0,0.03-0.03,0.13-0.08,0.28c-0.05,0.15-0.11,0.32-0.17,0.5c-0.06,0.18-0.12,0.35-0.18,0.52c-0.06,0.16-0.1,0.28-0.12,0.35&#10;&#9;&#9;&#9;l0.09,0.09c0.58-0.43,1.23-0.73,1.96-0.91c0.73-0.18,1.43-0.26,2.11-0.26v5.02v1.73v1.28c0,0.37,0,0.7-0.01,0.99&#10;&#9;&#9;&#9;c-0.01,0.3-0.01,0.58-0.03,0.85c-0.01,0.25-0.07,0.42-0.18,0.51c-0.11,0.09-0.22,0.16-0.35,0.22l0.02,0.07&#10;&#9;&#9;&#9;c0.06-0.01,0.15-0.02,0.28-0.03c0.13-0.01,0.27-0.02,0.42-0.02c0.15-0.01,0.29-0.01,0.42-0.01h0.31h0.3c0.13,0,0.27,0,0.42,0.01&#10;&#9;&#9;&#9;c0.15,0.01,0.29,0.01,0.42,0.02c0.13,0.01,0.22,0.02,0.28,0.03l0.02-0.07c-0.11-0.06-0.23-0.13-0.34-0.22&#10;&#9;&#9;&#9;c-0.11-0.09-0.18-0.26-0.19-0.51c-0.01-0.27-0.02-0.56-0.03-0.85c-0.01-0.29-0.01-0.63-0.01-0.99v-1.28v-1.73v-5.02&#10;&#9;&#9;&#9;c0.68,0,1.38,0.08,2.1,0.26c0.72,0.17,1.37,0.47,1.95,0.9L58.86,40.94z M71.1,48.81c-0.34,0.25-0.73,0.45-1.18,0.6&#10;&#9;&#9;&#9;c-0.45,0.15-0.93,0.27-1.45,0.35c-0.52,0.08-1.05,0.13-1.62,0.15s-1.13,0.03-1.71,0.02c-0.01-0.27-0.02-0.56-0.03-0.87&#10;&#9;&#9;&#9;c-0.01-0.31-0.01-0.65-0.01-1.04v-1.32v-1.69v-0.03c0.84,0,1.51,0.01,2.01,0.03c0.51,0.02,0.89,0.07,1.17,0.13&#10;&#9;&#9;&#9;c0.27,0.06,0.46,0.15,0.56,0.27c0.1,0.12,0.18,0.27,0.22,0.45l0.08-0.03c-0.02-0.19-0.04-0.37-0.05-0.54&#10;&#9;&#9;&#9;c-0.01-0.16-0.02-0.36-0.02-0.59c0-0.23,0.01-0.42,0.02-0.58c0.01-0.16,0.03-0.34,0.05-0.54l-0.08-0.03&#10;&#9;&#9;&#9;c-0.05,0.17-0.12,0.31-0.22,0.43c-0.1,0.11-0.29,0.2-0.56,0.27c-0.27,0.07-0.66,0.12-1.17,0.14c-0.5,0.03-1.18,0.05-2.01,0.06V43&#10;&#9;&#9;&#9;v-1.1c0-0.33,0-0.66,0.01-0.98c0.01-0.32,0.01-0.69,0.03-1.11c0.52-0.03,1.02-0.05,1.5-0.03c0.48,0.01,0.93,0.06,1.37,0.14&#10;&#9;&#9;&#9;c0.44,0.09,0.85,0.22,1.24,0.39c0.39,0.18,0.76,0.42,1.1,0.72l0.09-0.1c-0.03-0.08-0.08-0.2-0.14-0.35&#10;&#9;&#9;&#9;c-0.06-0.15-0.12-0.31-0.18-0.48c-0.06-0.17-0.12-0.33-0.16-0.48c-0.05-0.15-0.07-0.25-0.07-0.32h-5.68c-0.07,0-0.17,0-0.3-0.01&#10;&#9;&#9;&#9;c-0.13-0.01-0.27-0.01-0.41-0.02c-0.14-0.01-0.28-0.01-0.41-0.03c-0.13-0.01-0.22-0.02-0.28-0.03L62.8,39.3&#10;&#9;&#9;&#9;c0.11,0.06,0.23,0.13,0.34,0.22c0.11,0.09,0.18,0.26,0.19,0.51c0.01,0.27,0.02,0.55,0.03,0.84c0.01,0.29,0.01,0.62,0.01,1v1.29&#10;&#9;&#9;&#9;v1.72v1.71v1.28c0,0.37,0,0.71-0.01,1c-0.01,0.3-0.01,0.58-0.03,0.85c-0.01,0.25-0.07,0.42-0.19,0.51&#10;&#9;&#9;&#9;c-0.11,0.09-0.23,0.16-0.34,0.22l0.02,0.07c0.06-0.01,0.15-0.02,0.28-0.03c0.13-0.01,0.27-0.02,0.41-0.02&#10;&#9;&#9;&#9;c0.14-0.01,0.28-0.01,0.41-0.01h0.3h6.26c0-0.05,0.03-0.14,0.1-0.3c0.07-0.15,0.14-0.32,0.23-0.49c0.08-0.18,0.16-0.34,0.24-0.49&#10;&#9;&#9;&#9;c0.07-0.15,0.12-0.25,0.14-0.3L71.1,48.81z M83.76,50.24c-0.24,0.08-0.47,0.03-0.71-0.16c-0.23-0.19-0.47-0.44-0.71-0.77&#10;&#9;&#9;&#9;c-0.24-0.33-0.48-0.71-0.72-1.13c-0.24-0.42-0.5-0.84-0.77-1.23c-0.27-0.4-0.55-0.76-0.84-1.08c-0.29-0.32-0.61-0.55-0.95-0.67&#10;&#9;&#9;&#9;c0.46-0.08,0.9-0.2,1.31-0.37c0.41-0.16,0.77-0.37,1.07-0.63c0.31-0.25,0.55-0.56,0.73-0.91c0.18-0.35,0.27-0.76,0.27-1.22&#10;&#9;&#9;&#9;c0-0.39-0.09-0.75-0.25-1.09c-0.17-0.34-0.44-0.64-0.8-0.89c-0.36-0.26-0.82-0.46-1.38-0.6c-0.56-0.15-1.23-0.22-2.01-0.22h-0.52&#10;&#9;&#9;&#9;c-0.28,0-0.58,0-0.9,0.01c-0.32,0.01-0.62,0.01-0.89,0.02c-0.27,0.01-0.44,0.01-0.51,0.03l0.02,0.07&#10;&#9;&#9;&#9;c0.12,0.01,0.24,0.06,0.34,0.15c0.1,0.09,0.16,0.26,0.17,0.51c0.01,0.27,0.02,0.55,0.03,0.84c0.01,0.29,0.01,0.62,0.01,1v1.29&#10;&#9;&#9;&#9;v1.72v1.73v1.28c0,0.37,0,0.7-0.01,0.99c-0.01,0.3-0.01,0.58-0.03,0.85c-0.01,0.25-0.07,0.42-0.19,0.51&#10;&#9;&#9;&#9;c-0.11,0.09-0.23,0.16-0.34,0.22l0.02,0.07c0.06-0.01,0.15-0.02,0.29-0.03c0.14-0.01,0.28-0.02,0.42-0.02&#10;&#9;&#9;&#9;c0.15-0.01,0.29-0.01,0.43-0.01h0.31h0.3c0.13,0,0.27,0,0.41,0.01c0.14,0.01,0.28,0.01,0.41,0.02c0.13,0.01,0.22,0.02,0.28,0.03&#10;&#9;&#9;&#9;l0.02-0.07c-0.12-0.06-0.24-0.13-0.35-0.22c-0.11-0.09-0.17-0.26-0.18-0.51c-0.01-0.25-0.02-0.48-0.02-0.71&#10;&#9;&#9;&#9;c-0.01-0.22-0.01-0.47-0.01-0.74v-0.94v-1.28v-0.8h0.46c0.29,0.06,0.54,0.23,0.73,0.52c0.19,0.29,0.37,0.63,0.53,1.03&#10;&#9;&#9;&#9;c0.16,0.4,0.32,0.82,0.48,1.26c0.16,0.44,0.35,0.85,0.59,1.22c0.23,0.37,0.52,0.69,0.88,0.94c0.35,0.25,0.8,0.37,1.34,0.37&#10;&#9;&#9;&#9;c0.19,0,0.41-0.02,0.66-0.05c0.25-0.03,0.45-0.11,0.61-0.22L83.76,50.24z M80.35,43.36c-0.19,0.35-0.43,0.62-0.73,0.82&#10;&#9;&#9;&#9;c-0.3,0.2-0.64,0.33-1.01,0.4c-0.37,0.07-0.74,0.09-1.11,0.05v-2.87c0-0.79,0.01-1.44,0.03-1.95c0.37,0,0.75,0.03,1.11,0.09&#10;&#9;&#9;&#9;c0.37,0.06,0.7,0.17,1,0.33c0.29,0.16,0.53,0.39,0.71,0.68c0.18,0.29,0.27,0.67,0.27,1.15C80.63,42.58,80.54,43.02,80.35,43.36&#10;&#9;&#9;&#9; M90.77,50.46c-0.12-0.06-0.24-0.13-0.35-0.22c-0.11-0.09-0.17-0.26-0.18-0.51c-0.01-0.27-0.02-0.56-0.03-0.85&#10;&#9;&#9;&#9;c-0.01-0.29-0.01-0.63-0.01-1v-1.28v-1.71v-1.72v-1.29c0-0.37,0-0.71,0.01-1c0.01-0.29,0.01-0.57,0.03-0.84&#10;&#9;&#9;&#9;c0.01-0.25,0.07-0.42,0.18-0.52c0.11-0.1,0.22-0.17,0.35-0.23l-0.02-0.07c-0.06,0.01-0.15,0.02-0.28,0.03&#10;&#9;&#9;&#9;c-0.13,0.01-0.27,0.02-0.42,0.03c-0.15,0.01-0.29,0.01-0.42,0.02c-0.13,0.01-0.23,0.01-0.3,0.01h-0.31&#10;&#9;&#9;&#9;c-0.14,0-0.28-0.01-0.42-0.02c-0.14-0.01-0.28-0.02-0.41-0.03c-0.13-0.01-0.23-0.02-0.3-0.04l-0.02,0.07&#10;&#9;&#9;&#9;c0.11,0.06,0.23,0.13,0.34,0.23c0.11,0.1,0.18,0.27,0.19,0.52c0.01,0.27,0.02,0.55,0.03,0.84c0.01,0.29,0.01,0.62,0.01,1v1.29&#10;&#9;&#9;&#9;v1.72v1.71v1.28c0,0.37,0,0.71-0.01,1c-0.01,0.3-0.01,0.58-0.03,0.85c-0.01,0.25-0.07,0.42-0.19,0.51&#10;&#9;&#9;&#9;c-0.11,0.09-0.23,0.16-0.34,0.22l0.02,0.07c0.07-0.01,0.17-0.02,0.3-0.03c0.13-0.01,0.27-0.02,0.41-0.02&#10;&#9;&#9;&#9;c0.14-0.01,0.28-0.01,0.42-0.01h0.31c0.07,0,0.17,0,0.3,0.01c0.13,0.01,0.27,0.01,0.42,0.02c0.15,0.01,0.29,0.01,0.42,0.02&#10;&#9;&#9;&#9;c0.13,0.01,0.22,0.01,0.28,0.02L90.77,50.46z M106.54,50.46c-0.16-0.06-0.33-0.18-0.53-0.36c-0.19-0.18-0.35-0.4-0.48-0.65&#10;&#9;&#9;&#9;c-0.14-0.27-0.27-0.54-0.4-0.79c-0.13-0.25-0.27-0.54-0.43-0.87c-0.15-0.32-0.34-0.7-0.55-1.14c-0.22-0.44-0.48-0.98-0.78-1.62&#10;&#9;&#9;&#9;c-0.31-0.65-0.6-1.27-0.88-1.86c-0.28-0.6-0.53-1.15-0.77-1.66c-0.23-0.51-0.44-0.97-0.62-1.38c-0.18-0.41-0.33-0.75-0.44-1.02&#10;&#9;&#9;&#9;h-0.24c-0.11,0.27-0.26,0.61-0.44,1.02c-0.18,0.41-0.39,0.87-0.62,1.38c-0.23,0.51-0.49,1.06-0.77,1.66&#10;&#9;&#9;&#9;c-0.28,0.6-0.58,1.22-0.88,1.86c-0.31,0.65-0.57,1.2-0.78,1.65c-0.22,0.45-0.41,0.85-0.58,1.19c-0.17,0.34-0.32,0.64-0.46,0.91&#10;&#9;&#9;&#9;c-0.14,0.27-0.27,0.54-0.41,0.81c-0.25,0.47-0.56,0.75-0.92,0.87l0.02,0.07c0.16-0.02,0.34-0.04,0.54-0.05&#10;&#9;&#9;&#9;c0.2-0.01,0.38-0.02,0.54-0.02c0.17,0,0.37,0.01,0.6,0.02c0.23,0.01,0.41,0.03,0.56,0.05l0.02-0.07c-0.06-0.02-0.12-0.05-0.2-0.09&#10;&#9;&#9;&#9;c-0.08-0.03-0.15-0.08-0.2-0.14c-0.06-0.06-0.1-0.12-0.12-0.2c-0.02-0.08-0.01-0.18,0.05-0.31c0.08-0.19,0.16-0.38,0.23-0.57&#10;&#9;&#9;&#9;c0.07-0.19,0.15-0.39,0.24-0.6c0.08-0.22,0.18-0.44,0.27-0.69c0.1-0.24,0.21-0.52,0.33-0.82h5.02c0.29,0.61,0.54,1.12,0.72,1.51&#10;&#9;&#9;&#9;c0.19,0.4,0.36,0.79,0.52,1.17c0.05,0.12,0.06,0.23,0.04,0.31c-0.02,0.08-0.05,0.15-0.11,0.2c-0.06,0.06-0.12,0.1-0.2,0.14&#10;&#9;&#9;&#9;c-0.07,0.03-0.14,0.06-0.2,0.09l0.02,0.07c0.07-0.01,0.18-0.02,0.35-0.03c0.16-0.01,0.34-0.02,0.52-0.02&#10;&#9;&#9;&#9;c0.18-0.01,0.35-0.01,0.52-0.01h0.38h0.32c0.14,0,0.28,0,0.43,0.01c0.15,0.01,0.3,0.01,0.43,0.02c0.14,0.01,0.24,0.02,0.32,0.03&#10;&#9;&#9;&#9;L106.54,50.46z M97.66,46.47l0.63-1.39c0.25-0.53,0.45-0.97,0.6-1.31c0.15-0.34,0.28-0.63,0.38-0.88c0.11-0.25,0.21-0.48,0.3-0.69&#10;&#9;&#9;&#9;c0.09-0.21,0.2-0.46,0.34-0.74c0.14,0.28,0.24,0.51,0.31,0.68c0.07,0.17,0.16,0.37,0.26,0.59c0.1,0.22,0.22,0.5,0.37,0.85&#10;&#9;&#9;&#9;c0.15,0.35,0.38,0.84,0.67,1.47l0.65,1.43H97.66z"/> <path class="st0" d="M46.08,60.38c-0.37,0-1.06,0.96-1.06,1.43c0,0.14,0.06,0.23,0.22,0.23c0.4,0,1-1.08,1-1.46&#10;&#9;&#9;&#9;C46.24,60.45,46.18,60.38,46.08,60.38 M46.23,61.66c-0.1,0.3-0.07,0.34,0,0.34c0.1,0,0.47-0.36,0.52-0.36&#10;&#9;&#9;&#9;c0.01,0,0.02,0.01,0.01,0.03c-0.05,0.08-0.55,0.63-0.77,0.63c-0.18,0-0.18-0.19-0.03-0.6l0.12-0.32c0-0.01-0.04-0.04-0.05-0.02&#10;&#9;&#9;&#9;c-0.31,0.61-0.64,0.94-0.99,0.94c-0.21,0-0.37-0.17-0.37-0.42c0-0.59,0.78-1.6,1.4-1.6c0.14,0,0.23,0.08,0.26,0.2&#10;&#9;&#9;&#9;c0.17-0.4,0.31-0.77,0.51-1.37c0.07-0.21-0.02-0.32-0.35-0.32c-0.04,0-0.04-0.05-0.01-0.05c0.25-0.03,0.76-0.06,0.81-0.06&#10;&#9;&#9;&#9;c0.04,0,0.05,0.03,0.03,0.08C46.84,59.98,46.44,61.04,46.23,61.66"/> <path class="st0" d="M48.4,60.34c-0.39,0-0.99,1.02-0.99,1.44c0,0.16,0.07,0.25,0.17,0.25c0.1,0,0.22-0.07,0.35-0.22&#10;&#9;&#9;&#9;c0.32-0.38,0.65-1.14,0.65-1.29C48.58,60.42,48.52,60.34,48.4,60.34 M48.48,61.67c-0.09,0.25-0.07,0.32,0.01,0.32&#10;&#9;&#9;&#9;c0.13,0,0.38-0.34,0.42-0.34c0.01,0,0.02,0.01,0.01,0.02c-0.16,0.29-0.49,0.61-0.68,0.61c-0.08,0-0.14-0.04-0.14-0.14&#10;&#9;&#9;&#9;c0-0.08,0.02-0.2,0.07-0.35l0.09-0.3c0-0.01-0.04-0.03-0.05-0.02c-0.29,0.5-0.59,0.81-0.84,0.81c-0.17,0-0.33-0.14-0.33-0.37&#10;&#9;&#9;&#9;c0-0.67,0.78-1.64,1.32-1.64c0.09,0,0.2,0.03,0.24,0.06c0.02,0.01,0.03,0.02,0.05,0c0.06-0.08,0.12-0.16,0.15-0.22&#10;&#9;&#9;&#9;c0.04-0.05,0.23,0.01,0.22,0.04L48.48,61.67z"/> <path class="st0" d="M54.47,59.04c-0.15,0.1-0.19,0.2-0.36,1.54c-0.17,1.41-0.17,1.53-0.14,1.55c0.06,0.04,0.19,0.03,0.3,0.06&#10;&#9;&#9;&#9;c0.04,0.01,0.03,0.07,0,0.06c-0.13-0.01-0.33-0.02-0.58-0.02c-0.25,0-0.47,0-0.6,0.02c-0.02,0-0.05-0.05,0-0.06&#10;&#9;&#9;&#9;c0.12-0.03,0.25-0.03,0.32-0.06c0.11-0.06,0.16-0.17,0.33-1.57c0.05-0.42,0.12-0.8,0.15-1.09c0-0.02-0.04-0.02-0.04-0.01&#10;&#9;&#9;&#9;c-0.4,0.62-1.16,1.82-1.76,2.83c-0.02,0.03-0.09,0.02-0.09,0c-0.07-1.04-0.19-2.23-0.26-2.8c0-0.01-0.03-0.02-0.04,0&#10;&#9;&#9;&#9;c-0.13,0.29-0.27,0.65-0.45,1.09c-0.56,1.41-0.57,1.52-0.54,1.55c0.04,0.04,0.16,0.03,0.26,0.06c0.04,0.01,0.02,0.07-0.01,0.06&#10;&#9;&#9;&#9;c-0.12-0.01-0.24-0.02-0.49-0.02c-0.25,0-0.37,0-0.51,0.02c-0.02,0-0.04-0.05,0-0.06c0.13-0.03,0.27-0.03,0.35-0.06&#10;&#9;&#9;&#9;c0.15-0.07,0.2-0.15,0.78-1.55c0.55-1.33,0.53-1.44,0.45-1.53c-0.05-0.05-0.19-0.07-0.36-0.09c-0.04,0-0.02-0.06,0-0.06&#10;&#9;&#9;&#9;c0.09,0.01,0.39,0.02,0.58,0.02c0.17,0,0.18-0.01,0.27-0.02c0.01,0,0.03,0.01,0.03,0.02c0.03,0.51,0.13,1.8,0.22,2.74&#10;&#9;&#9;&#9;c0,0.01,0.03,0.01,0.04,0c0.53-0.82,1.26-1.99,1.68-2.73c0.01-0.01,0.02-0.02,0.04-0.02c0.09,0.01,0.16,0.02,0.32,0.02&#10;&#9;&#9;&#9;c0.18,0,0.36-0.01,0.45-0.02c0.02,0,0.05,0.06,0.01,0.06C54.64,58.98,54.51,59.01,54.47,59.04"/> <path class="st0" d="M56.12,60.34c-0.39,0-0.99,1.02-0.99,1.44c0,0.16,0.07,0.25,0.17,0.25c0.1,0,0.22-0.07,0.35-0.22&#10;&#9;&#9;&#9;c0.32-0.38,0.65-1.14,0.65-1.29C56.31,60.42,56.25,60.34,56.12,60.34 M56.21,61.67c-0.09,0.25-0.07,0.32,0.01,0.32&#10;&#9;&#9;&#9;c0.13,0,0.38-0.34,0.42-0.34c0.01,0,0.02,0.01,0.01,0.02c-0.16,0.29-0.49,0.61-0.68,0.61c-0.08,0-0.14-0.04-0.14-0.14&#10;&#9;&#9;&#9;c0-0.08,0.02-0.2,0.07-0.35l0.09-0.3c0-0.01-0.04-0.03-0.05-0.02c-0.29,0.5-0.59,0.81-0.84,0.81c-0.17,0-0.33-0.14-0.33-0.37&#10;&#9;&#9;&#9;c0-0.67,0.78-1.64,1.32-1.64c0.09,0,0.2,0.03,0.24,0.06c0.02,0.01,0.03,0.02,0.05,0c0.06-0.08,0.12-0.16,0.15-0.22&#10;&#9;&#9;&#9;c0.04-0.05,0.23,0.01,0.22,0.04L56.21,61.67z"/> <path class="st0" d="M58.24,60.67c-0.2,0-0.18-0.32-0.41-0.32c-0.13,0-0.25,0.15-0.25,0.27c0,0.26,0.46,0.78,0.46,1.11&#10;&#9;&#9;&#9;c0,0.29-0.27,0.57-0.66,0.57c-0.29,0-0.49-0.21-0.49-0.34c0-0.09,0.06-0.17,0.17-0.17c0.24,0,0.15,0.41,0.48,0.41&#10;&#9;&#9;&#9;c0.14,0,0.24-0.18,0.24-0.32c0-0.27-0.43-0.67-0.43-1.05c0-0.3,0.3-0.61,0.66-0.61c0.2,0,0.39,0.15,0.39,0.29&#10;&#9;&#9;&#9;C58.4,60.59,58.33,60.67,58.24,60.67"/> <path class="st0" d="M59.75,60.67c-0.2,0-0.18-0.32-0.41-0.32c-0.13,0-0.25,0.15-0.25,0.27c0,0.26,0.46,0.78,0.46,1.11&#10;&#9;&#9;&#9;c0,0.29-0.27,0.57-0.66,0.57c-0.29,0-0.49-0.21-0.49-0.34c0-0.09,0.06-0.17,0.17-0.17c0.24,0,0.15,0.41,0.48,0.41&#10;&#9;&#9;&#9;c0.14,0,0.24-0.18,0.24-0.32c0-0.27-0.43-0.67-0.43-1.05c0-0.3,0.3-0.61,0.66-0.61c0.2,0,0.39,0.15,0.39,0.29&#10;&#9;&#9;&#9;C59.91,60.59,59.84,60.67,59.75,60.67"/> <path class="st0" d="M61.12,59.65c-0.1,0-0.15-0.08-0.15-0.16c0-0.12,0.11-0.29,0.25-0.29c0.1,0,0.15,0.08,0.15,0.16&#10;&#9;&#9;&#9;C61.38,59.48,61.26,59.65,61.12,59.65 M60.34,62.29c-0.19,0-0.23-0.19-0.12-0.43l0.49-1.07c0.1-0.22,0.1-0.32-0.01-0.32&#10;&#9;&#9;&#9;c-0.11,0-0.33,0.21-0.48,0.41c-0.01,0.02-0.04,0-0.03-0.01c0.09-0.27,0.49-0.65,0.74-0.65c0.25,0,0.25,0.29,0.04,0.75l-0.38,0.76&#10;&#9;&#9;&#9;c-0.1,0.22-0.07,0.26,0.03,0.26c0.1,0,0.46-0.33,0.51-0.33c0.01,0,0.02,0.01,0.01,0.02C61.1,61.76,60.61,62.29,60.34,62.29"/> <path class="st0" d="M63.72,62.29c-0.17,0-0.23-0.12-0.12-0.43l0.37-0.95c0.15-0.37,0.12-0.44,0.06-0.44c-0.22,0-0.62,0.63-1.23,1.75&#10;&#9;&#9;&#9;c-0.01,0.03-0.1,0.04-0.17,0.04c-0.08,0-0.14-0.01-0.13-0.04l0.54-1.45c0.07-0.18,0.12-0.31,0.03-0.31&#10;&#9;&#9;&#9;c-0.23,0-0.62,0.65-1.23,1.77c-0.01,0.03-0.09,0.04-0.16,0.04c-0.08,0-0.15-0.01-0.14-0.04l0.53-1.43&#10;&#9;&#9;&#9;c0.07-0.21,0.09-0.32,0.01-0.32c-0.15,0-0.31,0.14-0.5,0.4c-0.01,0.02-0.04,0-0.03-0.01c0.09-0.27,0.48-0.64,0.74-0.64&#10;&#9;&#9;&#9;c0.08,0,0.15,0.09,0.15,0.2c0,0.22-0.15,0.66-0.46,1.36c-0.01,0.01,0.05,0.02,0.05,0.02c0.59-1.13,0.93-1.61,1.22-1.61&#10;&#9;&#9;&#9;c0.09,0,0.16,0.09,0.16,0.23c0,0.24-0.15,0.65-0.47,1.36c-0.01,0.01,0.05,0.02,0.05,0.02c0.58-1.12,0.97-1.57,1.23-1.57&#10;&#9;&#9;&#9;c0.3,0,0.22,0.35,0.07,0.74l-0.3,0.76c-0.08,0.22-0.05,0.26,0.02,0.26c0.1,0,0.46-0.33,0.51-0.33c0.01,0,0.02,0.01,0.01,0.02&#10;&#9;&#9;&#9;C64.47,61.76,63.98,62.29,63.72,62.29"/> <path class="st0" d="M65.95,60.29c-0.34,0-0.78,1.08-0.78,1.59c0,0.22,0.09,0.34,0.26,0.34c0.34,0,0.79-1.08,0.79-1.59&#10;&#9;&#9;&#9;C66.21,60.41,66.12,60.29,65.95,60.29 M65.4,62.29c-0.3,0-0.52-0.21-0.52-0.65c0-0.55,0.44-1.43,1.1-1.43&#10;&#9;&#9;&#9;c0.3,0,0.52,0.21,0.52,0.66C66.49,61.42,66.05,62.29,65.4,62.29"/> <path class="st0" d="M69.74,59.02c-0.14,0-0.22,0.03-0.3,0.06c-0.04,0.02-0.09,0.08-0.42,1.26c-0.01,0.03-0.01,0.06,0.01,0.07&#10;&#9;&#9;&#9;c0.06,0.01,0.08,0.01,0.35,0.01c0.64,0,0.91-0.52,0.91-0.92C70.3,59.23,70.14,59.02,69.74,59.02 M69.36,60.52&#10;&#9;&#9;&#9;c-0.27,0-0.29,0-0.36,0.01c-0.03,0.01-0.05,0.03-0.06,0.07c-0.33,1.15-0.37,1.38-0.32,1.45c0.06,0.07,0.15,0.09,0.49,0.09&#10;&#9;&#9;&#9;c0.58,0,1.02-0.45,1.02-0.97C70.14,60.81,69.82,60.52,69.36,60.52 M69.75,60.44c-0.02,0-0.03,0.04-0.01,0.04&#10;&#9;&#9;&#9;c0.59,0.09,0.81,0.43,0.81,0.75c0,0.5-0.58,1.02-1.51,1.02c-0.12,0-0.29-0.02-0.54-0.02c-0.25,0-0.63,0-0.76,0.02&#10;&#9;&#9;&#9;c-0.02,0-0.04-0.05,0-0.06c0.12-0.03,0.27-0.03,0.34-0.06c0.04-0.02,0.1-0.15,0.51-1.55c0.4-1.41,0.42-1.53,0.38-1.56&#10;&#9;&#9;&#9;c-0.05-0.03-0.18-0.03-0.29-0.06c-0.03-0.01-0.02-0.06,0-0.06c0.13,0.01,0.48,0.02,0.74,0.02c0.25,0,0.32-0.02,0.45-0.02&#10;&#9;&#9;&#9;c0.5,0,0.83,0.29,0.83,0.65C70.7,59.94,70.35,60.31,69.75,60.44"/> <path class="st0" d="M72.11,60.29c-0.34,0-0.78,1.08-0.78,1.59c0,0.22,0.09,0.34,0.26,0.34c0.34,0,0.79-1.08,0.79-1.59&#10;&#9;&#9;&#9;C72.38,60.41,72.28,60.29,72.11,60.29 M71.56,62.29c-0.3,0-0.52-0.21-0.52-0.65c0-0.55,0.44-1.43,1.1-1.43&#10;&#9;&#9;&#9;c0.3,0,0.52,0.21,0.52,0.66C72.66,61.42,72.22,62.29,71.56,62.29"/> <path class="st0" d="M74.35,60.46c-0.16-0.01-0.17-0.02-0.46-0.02c-0.16,0.43-0.37,0.97-0.49,1.31c-0.07,0.2-0.02,0.27,0.04,0.27&#10;&#9;&#9;&#9;c0.17,0,0.52-0.45,0.57-0.45c0.01,0,0.02,0.01,0.01,0.02c-0.15,0.23-0.5,0.71-0.81,0.71c-0.11,0-0.3-0.1-0.17-0.43&#10;&#9;&#9;&#9;c0.17-0.44,0.37-0.99,0.52-1.42c-0.18,0-0.23,0.01-0.37,0.02c-0.05,0-0.05-0.14,0.01-0.14c0.14,0.01,0.22,0.01,0.4,0.01&#10;&#9;&#9;&#9;c0.06-0.16,0.11-0.3,0.14-0.41c0.01-0.02,0.04-0.02,0.07-0.02c0.08,0,0.29,0.03,0.27,0.08c-0.04,0.1-0.09,0.22-0.15,0.36&#10;&#9;&#9;&#9;c0.28,0,0.27,0,0.43-0.01C74.41,60.32,74.42,60.46,74.35,60.46"/> <path class="st0" d="M75.91,60.46c-0.16-0.01-0.17-0.02-0.46-0.02c-0.16,0.43-0.37,0.97-0.49,1.31c-0.07,0.2-0.02,0.27,0.04,0.27&#10;&#9;&#9;&#9;c0.17,0,0.53-0.45,0.57-0.45c0.01,0,0.02,0.01,0.01,0.02c-0.15,0.23-0.5,0.71-0.81,0.71c-0.11,0-0.3-0.1-0.17-0.43&#10;&#9;&#9;&#9;c0.17-0.44,0.37-0.99,0.52-1.42c-0.18,0-0.23,0.01-0.37,0.02c-0.05,0-0.05-0.14,0.01-0.14c0.14,0.01,0.22,0.01,0.4,0.01&#10;&#9;&#9;&#9;c0.06-0.16,0.11-0.3,0.14-0.41c0.01-0.02,0.04-0.02,0.07-0.02c0.08,0,0.29,0.03,0.27,0.08c-0.04,0.1-0.09,0.22-0.15,0.36&#10;&#9;&#9;&#9;c0.28,0,0.27,0,0.43-0.01C75.97,60.32,75.97,60.46,75.91,60.46"/> <path class="st0" d="M77.54,61.7c-0.09,0.25-0.05,0.28,0.02,0.28c0.1,0,0.44-0.33,0.48-0.33c0.01,0,0.02,0.01,0.01,0.02&#10;&#9;&#9;&#9;c-0.05,0.08-0.5,0.61-0.77,0.61c-0.21,0-0.21-0.24,0.26-1.27c0-0.01-0.04-0.04-0.05-0.02c-0.37,0.62-0.75,1.29-1.16,1.29&#10;&#9;&#9;&#9;c-0.13,0-0.24-0.06-0.24-0.23c0-0.11,0.04-0.26,0.15-0.51l0.35-0.76c0.1-0.22,0.11-0.32,0.01-0.32c-0.15,0-0.34,0.21-0.4,0.25&#10;&#9;&#9;&#9;c-0.01,0.01-0.03-0.02-0.02-0.03c0.17-0.2,0.4-0.48,0.65-0.48c0.18,0,0.24,0.21,0.09,0.56l-0.36,0.83&#10;&#9;&#9;&#9;c-0.14,0.33-0.13,0.44-0.01,0.44c0.23,0,0.75-0.66,1.23-1.79c0.01-0.01,0.04-0.02,0.08-0.02c0.09,0,0.23,0.03,0.22,0.07&#10;&#9;&#9;&#9;L77.54,61.7z"/> <path class="st0" d="M79.98,60.71c-0.2,0-0.11-0.25-0.23-0.25c-0.13,0-0.36,0.28-0.99,1.76c-0.01,0.03-0.1,0.04-0.17,0.04&#10;&#9;&#9;&#9;c-0.08,0-0.15,0-0.14-0.04c0.29-0.79,0.49-1.4,0.49-1.57c0-0.1-0.02-0.14-0.07-0.14c-0.15,0-0.33,0.35-0.37,0.37&#10;&#9;&#9;&#9;c-0.01,0-0.04,0-0.03-0.01c0.12-0.26,0.37-0.67,0.61-0.67c0.13,0,0.17,0.15,0.17,0.3c0,0.18-0.07,0.45-0.25,0.97&#10;&#9;&#9;&#9;c-0.01,0.02,0.05,0.03,0.05,0.02c0.37-0.89,0.63-1.29,0.91-1.29c0.16,0,0.25,0.12,0.25,0.26C80.19,60.59,80.1,60.71,79.98,60.71"/> <path class="st0" d="M81.43,60.34c-0.39,0-0.99,1.02-0.99,1.44c0,0.16,0.07,0.25,0.17,0.25c0.1,0,0.22-0.07,0.35-0.22&#10;&#9;&#9;&#9;c0.32-0.38,0.65-1.14,0.65-1.29C81.62,60.42,81.56,60.34,81.43,60.34 M81.52,61.67c-0.09,0.25-0.07,0.32,0.01,0.32&#10;&#9;&#9;&#9;c0.13,0,0.38-0.34,0.42-0.34c0.01,0,0.02,0.01,0.01,0.02c-0.16,0.29-0.49,0.61-0.68,0.61c-0.08,0-0.14-0.04-0.14-0.14&#10;&#9;&#9;&#9;c0-0.08,0.02-0.2,0.07-0.35l0.09-0.3c0-0.01-0.04-0.03-0.05-0.02c-0.3,0.5-0.59,0.81-0.84,0.81c-0.17,0-0.33-0.14-0.33-0.37&#10;&#9;&#9;&#9;c0-0.67,0.78-1.64,1.32-1.64c0.09,0,0.2,0.03,0.24,0.06c0.02,0.01,0.03,0.02,0.05,0c0.06-0.08,0.12-0.16,0.15-0.22&#10;&#9;&#9;&#9;c0.04-0.05,0.23,0.01,0.22,0.04L81.52,61.67z"/> </g> </g>  </symbol><use xmlns:xlink="http://www.w3.org/1999/xlink" xlink:href="#svg-icon-gucci-osteria"/></svg>