
<svg version="1.1" id="Capa_1" xmlns="http://www.w3.org/2000/svg" xmlns:xlink="http://www.w3.org/1999/xlink" x="0px" y="0px"
	 viewBox="0 0 297 297" style="enable-background:new 0 0 297 297;" xml:space="preserve">
<g>
	<path d="M181.115,236.463h-22.731V125.768h87.963c5.458,0,9.884-4.425,9.884-9.883V66.961c0-5.458-4.426-9.884-9.884-9.884H50.653
		c-5.458,0-9.884,4.426-9.884,9.884v48.924c0,5.458,4.426,9.883,9.884,9.883h87.963v110.695h-22.731
		c-5.459,0-9.884,4.426-9.884,9.884c0,5.458,4.425,9.884,9.884,9.884h65.23c5.458,0,9.884-4.426,9.884-9.884
		C190.999,240.889,186.573,236.463,181.115,236.463z M60.536,76.845h175.928v29.156H60.536V76.845z"/>
	<path d="M0,246.347c0,5.458,4.426,9.884,9.884,9.884s9.883-4.426,9.883-9.884v-55.348h61.772v55.348
		c0,5.458,4.426,9.884,9.884,9.884c5.458,0,9.883-4.426,9.883-9.884V148.5c0-5.458-4.425-9.884-9.883-9.884H19.767V50.653
		c0-5.458-4.425-9.884-9.883-9.884S0,45.195,0,50.653V246.347z M19.767,158.384h61.772v12.849H19.767V158.384z"/>
	<path d="M195.693,246.347c0,5.458,4.426,9.884,9.884,9.884c5.458,0,9.884-4.426,9.884-9.884v-55.348h61.772v55.348
		c0,5.458,4.425,9.884,9.883,9.884c5.458,0,9.884-4.426,9.884-9.884V50.653c0-5.458-4.426-9.884-9.884-9.884
		c-5.458,0-9.883,4.426-9.883,9.884v87.963h-71.656c-5.458,0-9.884,4.426-9.884,9.884V246.347z M215.461,171.232v-12.849h61.772
		v12.849H215.461z"/>
</g>
<g>
</g>
<g>
</g>
<g>
</g>
<g>
</g>
<g>
</g>
<g>
</g>
<g>
</g>
<g>
</g>
<g>
</g>
<g>
</g>
<g>
</g>
<g>
</g>
<g>
</g>
<g>
</g>
<g>
</g>
</svg>
